<svg width="32" height="29" viewBox="0 0 32 29" fill="none" xmlns="http://www.w3.org/2000/svg">
<path d="M23.6661 9.24825C23.0967 8.89307 22.3566 8.89307 21.7303 9.24825L17.2896 11.9712L14.2722 13.7471L9.83154 16.4702C9.26223 16.8254 8.52214 16.8254 7.89589 16.4702L4.3661 14.3392C3.79678 13.984 3.39826 13.3328 3.39826 12.6224V8.41949C3.39826 7.70913 3.73985 7.05797 4.3661 6.7028L7.83895 4.63091C8.40827 4.27573 9.1484 4.27573 9.77463 4.63091L13.2475 6.7028C13.8168 7.05797 14.2153 7.70913 14.2153 8.41949V11.1425L17.2327 9.30744V6.5844C17.2327 5.87404 16.8911 5.22288 16.2649 4.8677L9.83154 0.960721C9.26223 0.605541 8.52214 0.605541 7.89589 0.960721L1.3487 4.8677C0.722451 5.22288 0.380859 5.87404 0.380859 6.5844V14.4576C0.380859 15.1679 0.722451 15.8191 1.3487 16.1742L7.89589 20.0812C8.46521 20.4364 9.20532 20.4364 9.83154 20.0812L14.2722 17.4173L17.2896 15.5823L21.7303 12.9184C22.2997 12.5633 23.0398 12.5633 23.6661 12.9184L27.1389 14.9903C27.7082 15.3455 28.1068 15.9967 28.1068 16.707V20.91C28.1068 21.6203 27.7651 22.2715 27.1389 22.6266L23.6661 24.7578C23.0967 25.113 22.3566 25.113 21.7303 24.7578L18.2575 22.6859C17.6882 22.3307 17.2896 21.6796 17.2896 20.9691V18.2461L14.2722 20.0812V22.8043C14.2722 23.5146 14.6139 24.1658 15.2401 24.5209L21.7873 28.428C22.3566 28.7832 23.0967 28.7832 23.723 28.428L30.2701 24.5209C30.8395 24.1658 31.238 23.5146 31.238 22.8043V14.9311C31.238 14.2208 30.8964 13.5696 30.2701 13.2144L23.6661 9.24825Z" fill="#8247E5"/>
</svg>
