<svg width="37" height="37" viewBox="0 0 37 37" fill="none" xmlns="http://www.w3.org/2000/svg">
<path d="M18.4997 3.08301C10.0051 3.08301 3.08301 10.0051 3.08301 18.4997C3.08301 26.9943 10.0051 33.9163 18.4997 33.9163C26.9943 33.9163 33.9163 26.9943 33.9163 18.4997C33.9163 10.0051 26.9943 3.08301 18.4997 3.08301ZM25.8688 14.9538L17.1276 23.6951C16.9118 23.9109 16.6188 24.0343 16.3105 24.0343C16.0022 24.0343 15.7093 23.9109 15.4934 23.6951L11.1305 19.3322C10.6834 18.8851 10.6834 18.1451 11.1305 17.698C11.5776 17.2509 12.3176 17.2509 12.7647 17.698L16.3105 21.2438L24.2347 13.3197C24.6818 12.8726 25.4218 12.8726 25.8688 13.3197C26.3159 13.7668 26.3159 14.4913 25.8688 14.9538Z" fill="url(#paint0_linear_1486_7921)"/>
<defs>
<linearGradient id="paint0_linear_1486_7921" x1="18.4997" y1="3.08301" x2="18.4997" y2="33.9163" gradientUnits="userSpaceOnUse">
<stop stop-color="#36EFFF"/>
<stop offset="1" stop-color="#36A1FF"/>
</linearGradient>
</defs>
</svg>
