<svg width="176" height="31" viewBox="0 0 176 31" fill="none" xmlns="http://www.w3.org/2000/svg">
<g clip-path="url(#clip0_1236_7468)">
<path fill-rule="evenodd" clip-rule="evenodd" d="M7.76766 0C7.55956 0.586242 7.44629 1.21739 7.44629 1.87499V9.94069H7.44511V16.7785C7.44511 21.2365 11.059 24.8504 15.517 24.8504H16.134C20.2512 24.8504 23.5889 21.5128 23.5889 17.3955C23.5889 13.2783 20.2512 9.94069 16.134 9.94069H13.0501V0H27.3202C27.9789 0 28.6106 0.261807 29.0764 0.727826C29.5422 1.19385 29.8039 1.8259 29.8039 2.48495V11.6016C29.8039 25.4863 18.0375 30.099 15.6781 30.8755C15.1739 31.0415 14.6299 31.0415 14.1258 30.8755C11.7663 30.099 0 25.4863 0 11.6016V2.48495C0 1.8259 0.26167 1.19385 0.727446 0.727826C1.19322 0.261807 1.82495 0 2.48365 0H7.76766ZM13.0518 17.2942C13.0518 15.7467 14.3062 14.4908 15.8537 14.4908C17.4011 14.4908 18.6555 15.7467 18.6555 17.2942C18.6555 18.8416 17.4011 20.0975 15.8537 20.0975C14.3062 20.0975 13.0518 18.8416 13.0518 17.2942Z" fill="url(#paint0_linear_1236_7468)"/>
<path d="M44.4136 21.3151C48.5527 21.3151 51.5581 19.2773 51.5581 16.4329C51.5581 14.8409 50.029 13.6947 48.0254 13.3232L48.0386 13.2383C50.6617 12.8456 52.5204 11.3173 52.5204 9.25831C52.5204 7.43282 50.6354 6 46.8654 6H38.0468L34 21.3151H44.4136ZM42.7527 8.79132H44.9145C46.2722 8.79132 46.9577 9.32199 46.9577 10.0755C46.9577 11.1263 45.9031 11.901 44.3081 11.901H41.9354L42.7527 8.79132ZM40.2745 18.2266L41.1972 14.6923H43.649C45.1913 14.6923 45.9954 15.2655 45.9954 16.1463C45.9954 17.4094 44.8486 18.2266 42.99 18.2266H40.2745ZM52.059 21.3151H57.279L61.3258 6H56.1058L52.059 21.3151ZM65.8999 14.0768C66.2426 12.9623 67.3894 12.2088 68.7471 12.2088C69.9994 12.2088 70.8694 12.8456 70.8694 13.7371C70.8694 13.8539 70.8562 14.0237 70.8298 14.0768H65.8999ZM67.6135 21.6016C71.4889 21.6016 74.2571 19.9566 75.0084 17.4943H70.1576C69.9071 18.1735 69.024 18.6405 67.8771 18.6405C66.3085 18.6405 65.3858 17.7914 65.3858 16.7089C65.3858 16.6027 65.399 16.486 65.4253 16.3692H75.338C75.5225 15.7749 75.6016 14.9895 75.6016 14.3527C75.6016 11.2961 72.8862 9.30076 68.9844 9.30076C64.0281 9.30076 60.7326 12.23 60.7326 16.2419C60.7326 19.6169 63.4481 21.6016 67.6135 21.6016ZM93.7134 9.59794H88.4673L86.7007 16.2843C86.3843 17.4943 85.4749 18.1947 84.2356 18.1947C82.9967 18.1947 82.2847 17.6216 82.2847 16.624C82.2847 16.4011 82.3113 16.1994 82.3509 15.9978L84.0513 9.59794H78.8313L76.9593 16.6876C76.8407 17.1228 76.7749 17.6641 76.7749 18.1629C76.7749 20.2643 78.5546 21.6122 81.3356 21.6122C83.3658 21.6122 85.0661 20.795 85.9364 19.4047H86.0418L85.5407 21.3151H90.6156L93.7134 9.59794Z" fill="#11315B"/>
<path d="M107.567 12.6015H107.672L108.279 21.3151H113.499L122.436 6H116.689L112.075 15.5414H111.97L111.522 6H107.198L101.846 15.5414H101.74L102.057 6H96.3096L97.1798 21.3151H102.466L107.567 12.6015ZM125.587 18.6405C124.611 18.6405 123.939 18.2584 123.939 17.6853C123.939 17.0167 124.729 16.5603 125.916 16.5391L128.17 16.4966L127.972 17.2501C127.761 18.0461 126.733 18.6405 125.587 18.6405ZM123.148 21.4849C124.98 21.4849 126.469 20.8587 127.181 19.9353H127.287L126.918 21.3151H131.993L133.97 13.822C134.036 13.5885 134.089 13.1746 134.089 12.8774C134.089 10.7442 131.465 9.30076 127.603 9.30076C123.886 9.30076 121.144 10.7972 120.564 13.2489H125.27C125.533 12.6333 126.259 12.3149 127.234 12.3149C128.289 12.3149 129 12.6758 129 13.2171C129 13.2914 128.987 13.3657 128.948 13.5461L128.776 14.2253L125.6 14.2784C121.46 14.3527 118.916 15.881 118.916 18.3115C118.916 20.137 120.736 21.4849 123.148 21.4849ZM141.536 21.4849C142.354 21.4849 143.276 21.4212 143.672 21.3363L144.463 18.4495C144.318 18.4919 144.067 18.5131 143.514 18.5131C142.314 18.5131 141.827 18.269 141.827 17.6641C141.827 17.5367 141.853 17.3032 141.892 17.1971L143 13.0261H145.834L146.651 9.94816H143.804L144.542 7.15687H139.322L138.584 9.94816H136.422L135.578 13.0261H137.753L136.58 17.5579C136.448 18.0886 136.422 18.5556 136.422 18.8528C136.422 20.5933 138.293 21.4849 141.536 21.4849ZM151.95 14.0768C152.293 12.9623 153.44 12.2088 154.797 12.2088C156.049 12.2088 156.92 12.8456 156.92 13.7371C156.92 13.8539 156.906 14.0237 156.88 14.0768H151.95ZM153.664 21.6016C157.539 21.6016 160.307 19.9565 161.058 17.4943H156.207C155.957 18.1735 155.074 18.6405 153.927 18.6405C152.358 18.6405 151.436 17.7914 151.436 16.7089C151.436 16.6027 151.449 16.486 151.475 16.3692H161.388C161.573 15.7749 161.652 14.9895 161.652 14.3527C161.652 11.2961 158.936 9.30076 155.034 9.30076C150.078 9.30076 146.783 12.23 146.783 16.2419C146.783 19.6169 149.498 21.6016 153.664 21.6016ZM161.863 21.3151H167.096L168.704 15.3291C169.139 13.7159 170.391 12.9412 172.118 12.9412C173.001 12.9412 173.634 13.1216 174.306 13.3763L175.295 9.73589C174.715 9.52363 174.122 9.42812 173.291 9.42812C171.722 9.42812 170.431 10.2029 169.772 11.2961H169.666L170.088 9.59794H164.987L161.863 21.3151Z" fill="#11315B"/>
</g>
<defs>
<linearGradient id="paint0_linear_1236_7468" x1="14.9019" y1="0" x2="14.9019" y2="31" gradientUnits="userSpaceOnUse">
<stop stop-color="#00A3FF"/>
<stop offset="1" stop-color="#4A3AFF"/>
</linearGradient>
<clipPath id="clip0_1236_7468">
<rect width="176" height="31" fill="white"/>
</clipPath>
</defs>
</svg>
