<svg width="current" height="current" viewBox="0 0 30 30" fill="none" xmlns="http://www.w3.org/2000/svg">
<path d="M28.793 9.10558L25.254 12.6329C24.5508 20.8243 17.6368 27.1876 9.37506 27.1876C7.67585 27.1876 6.2696 26.9181 5.20319 26.3907C4.34772 25.9571 3.99616 25.5001 3.90241 25.3595C3.82484 25.2417 3.77486 25.1079 3.75619 24.9681C3.73752 24.8282 3.75063 24.686 3.79456 24.552C3.83849 24.4179 3.9121 24.2955 4.0099 24.1939C4.10771 24.0923 4.22719 24.014 4.35944 23.965C4.38288 23.9532 7.1485 22.8985 8.94147 20.8712C7.82953 20.0795 6.8522 19.114 6.04694 18.0118C4.44147 15.8321 2.74226 12.047 3.76179 6.39855C3.79384 6.23062 3.87064 6.07447 3.98409 5.94659C4.09754 5.8187 4.24341 5.72383 4.40632 5.67199C4.56974 5.61847 4.74473 5.61094 4.91215 5.65021C5.07956 5.68948 5.23295 5.77404 5.35554 5.89464C5.39069 5.94152 9.29303 9.78527 14.0626 11.0275V10.3126C14.0672 9.5693 14.2181 8.83418 14.5068 8.14922C14.7956 7.46426 15.2163 6.84287 15.7452 6.32054C16.2741 5.79821 16.9006 5.38516 17.5891 5.10498C18.2776 4.8248 19.0146 4.68298 19.7579 4.68761C20.7334 4.70152 21.6888 4.9679 22.5308 5.46079C23.3728 5.95368 24.0728 6.65627 24.5626 7.50011H28.1251C28.3101 7.49953 28.4913 7.55375 28.6456 7.65594C28.7999 7.75812 28.9205 7.9037 28.9922 8.07433C29.0598 8.2475 29.0769 8.43625 29.0417 8.61874C29.0064 8.80124 28.9202 8.97003 28.793 9.10558Z" fill="url(#paint0_linear_1791_12510)"/>
<defs>
<linearGradient id="paint0_linear_1791_12510" x1="16.2563" y1="4.6875" x2="16.2563" y2="27.1876" gradientUnits="userSpaceOnUse">
<stop stop-color="#00A3FF"/>
<stop offset="1" stop-color="#4A3AFF"/>
</linearGradient>
</defs>
</svg>
