<svg width="24" height="24" viewBox="0 0 24 24" fill="none" xmlns="http://www.w3.org/2000/svg">
<path d="M21.75 12C21.7475 9.4149 20.7195 6.93639 18.8915 5.10845C17.0636 3.28051 14.5851 2.25248 12 2.25V2.25C9.41414 2.25 6.93419 3.27723 5.10571 5.10571C3.27723 6.93419 2.25 9.41414 2.25 12C2.25 14.5859 3.27723 17.0658 5.10571 18.8943C6.93419 20.7228 9.41414 21.75 12 21.75V21.75C14.5851 21.7475 17.0636 20.7195 18.8915 18.8915C20.7195 17.0636 21.7475 14.5851 21.75 12V12ZM20.2125 11.25L16.4813 11.25C16.3313 8.475 15.3563 5.90625 13.7156 3.92813C15.437 4.2979 16.9954 5.20747 18.1639 6.5244C19.3325 7.84133 20.0502 9.49687 20.2125 11.25ZM9.02813 12.75L14.9719 12.75C14.8031 15.45 13.725 17.9719 12 19.725C10.275 17.9719 9.19688 15.45 9.02813 12.75ZM9.02813 11.25C9.19688 8.55 10.275 6.02812 12 4.275C13.725 6.02812 14.8031 8.55 14.9719 11.25L9.02813 11.25ZM13.7156 20.0719C15.3563 18.0938 16.3313 15.525 16.4813 12.75L20.2125 12.75C20.0502 14.5031 19.3325 16.1587 18.1639 17.4756C16.9954 18.7925 15.437 19.7021 13.7156 20.0719V20.0719Z" fill="white"/>
</svg>
