<svg width="24" height="25" viewBox="0 0 24 25" fill="none" xmlns="http://www.w3.org/2000/svg">
<path d="M19.3297 6.38535L13.0597 3.00535C12.3997 2.64535 11.5997 2.64535 10.9397 3.00535L4.66969 6.38535C4.20969 6.63535 3.92969 7.11535 3.92969 7.66535C3.92969 8.20535 4.20969 8.69535 4.66969 8.94535L10.9397 12.3254C11.2697 12.5054 11.6397 12.5954 11.9997 12.5954C12.3597 12.5954 12.7297 12.5054 13.0597 12.3254L19.3297 8.94535C19.7897 8.69535 20.0697 8.21535 20.0697 7.66535C20.0697 7.11535 19.7897 6.63535 19.3297 6.38535Z" fill="white"/>
<path d="M9.91 13.4951L4.07 10.5751C3.62 10.3551 3.1 10.3751 2.68 10.6351C2.25 10.9051 2 11.3551 2 11.8551L2 17.3651C2 18.3151 2.53 19.1751 3.38 19.6051L9.21 22.5251C9.41 22.6251 9.63 22.6751 9.85 22.6751C10.11 22.6751 10.37 22.6051 10.6 22.4651C11.03 22.2051 11.28 21.7451 11.28 21.2451L11.28 15.7351C11.29 14.7751 10.76 13.9151 9.91 13.4951Z" fill="white"/>
<path d="M21.3197 10.6352C20.8897 10.3752 20.3697 10.3452 19.9297 10.5752L14.0997 13.4952C13.2497 13.9252 12.7197 14.7752 12.7197 15.7352L12.7197 21.2452C12.7197 21.7452 12.9697 22.2052 13.3997 22.4652C13.6297 22.6052 13.8897 22.6752 14.1497 22.6752C14.3697 22.6752 14.5897 22.6252 14.7897 22.5252L20.6197 19.6052C21.4697 19.1752 21.9997 18.3252 21.9997 17.3652L21.9997 11.8552C21.9997 11.3552 21.7497 10.9052 21.3197 10.6352Z" fill="white"/>
</svg>
