<svg width="24" height="25" viewBox="0 0 24 25" fill="none" xmlns="http://www.w3.org/2000/svg">
<path d="M7.80023 22.369C5.15023 22.369 2.99023 20.219 2.99023 17.559V14.719C2.99023 14.049 3.65023 13.599 4.28023 13.819C4.54023 13.909 4.80023 13.969 5.07023 14.009C5.19023 14.029 5.31023 14.049 5.43023 14.049C5.58023 14.069 5.74023 14.079 5.89023 14.079C7.00023 14.079 8.10023 13.669 8.97023 12.959C9.80023 13.669 10.8702 14.079 12.0102 14.079C13.1502 14.079 14.2102 13.689 15.0402 12.969C15.9002 13.669 16.9802 14.079 18.0802 14.079C18.2502 14.079 18.4302 14.069 18.5902 14.049C18.7102 14.039 18.8102 14.029 18.9202 14.009C19.2202 13.969 19.4902 13.889 19.7602 13.799C20.3802 13.589 21.0302 14.049 21.0302 14.699V17.559C21.0302 20.209 18.8802 22.369 16.2202 22.369H7.80023Z" fill="white"/>
<path d="M21.9799 8.80836L21.6999 6.14836C21.2999 3.24836 19.9799 2.06836 17.1599 2.06836H14.8999H13.4799H10.5599H9.12985H6.81985C3.99985 2.06836 2.68985 3.24836 2.27985 6.17836L2.01985 8.81836C1.91985 9.84836 2.19985 10.8484 2.80985 11.6284C3.53985 12.5784 4.65985 13.1184 5.90985 13.1184C7.11985 13.1184 8.27985 12.5084 9.00985 11.5384C9.65985 12.5084 10.7799 13.1184 12.0199 13.1184C13.2599 13.1184 14.3499 12.5384 15.0099 11.5784C15.7499 12.5284 16.8899 13.1184 18.0899 13.1184C19.3699 13.1184 20.5199 12.5484 21.2399 11.5484C21.8199 10.7784 22.0799 9.80836 21.9799 8.80836ZM13.4999 7.94836H12.7499V8.72836C12.7499 9.14836 12.4099 9.47836 11.9999 9.47836C11.5899 9.47836 11.2499 9.14836 11.2499 8.72836V7.94836H10.4999C10.0899 7.94836 9.74985 7.61836 9.74985 7.19836C9.74985 6.78836 10.0899 6.44836 10.4999 6.44836H11.2499V5.73836C11.2499 5.32836 11.5899 4.98836 11.9999 4.98836C12.4099 4.98836 12.7499 5.32836 12.7499 5.73836V6.44836H13.4999C13.9099 6.44836 14.2499 6.78836 14.2499 7.19836C14.2499 7.61836 13.9099 7.94836 13.4999 7.94836Z" fill="white"/>
</svg>
