<svg width="20" height="23" viewBox="0 0 20 23" fill="none" xmlns="http://www.w3.org/2000/svg">
<path fill-rule="evenodd" clip-rule="evenodd" d="M15.7066 1.5562C12.1068 -0.177588 7.89319 -0.177588 4.2934 1.5562C1.98346 2.66875 0.41801 4.87325 0.15456 7.391L0.113379 7.78457C-0.0252433 9.10936 -0.0367788 10.444 0.0789247 11.7709L0.117587 12.2143C0.180921 12.9408 0.217456 13.3599 0.288555 13.7605C0.674645 15.9355 1.83453 17.9043 3.56024 19.3163C3.87801 19.5763 4.22945 19.8162 4.83923 20.2324L5.15283 20.4465C5.96459 21.0007 6.45545 21.3358 6.95715 21.5733C8.88004 22.4834 11.12 22.4834 13.0428 21.5733C13.5446 21.3358 14.0354 21.0007 14.8472 20.4465L15.1606 20.2325C15.7705 19.8162 16.122 19.5763 16.4398 19.3163C18.1655 17.9043 19.3254 15.9355 19.7114 13.7605C19.7825 13.3599 19.8191 12.9409 19.8824 12.2144L19.9211 11.7709C20.0368 10.444 20.0252 9.10936 19.8866 7.78457L19.8454 7.391C19.582 4.87325 18.0165 2.66875 15.7066 1.5562ZM13.7131 8.39636C14.0505 8.70725 14.0687 9.2293 13.7538 9.56239L9.7538 13.7932C9.59916 13.9567 9.38386 14.0513 9.15725 14.0551C8.93064 14.059 8.71217 13.9718 8.55191 13.8136L6.26619 11.5572C5.93983 11.235 5.93983 10.7127 6.26619 10.3905C6.59256 10.0683 7.12171 10.0683 7.44807 10.3905L9.12212 12.0431L12.5319 8.43657C12.8468 8.10347 13.3757 8.08547 13.7131 8.39636Z" fill="white"/>
</svg>
