<svg width="25" height="25" viewBox="0 0 25 25" fill="none" xmlns="http://www.w3.org/2000/svg">
<path d="M9.03158 2.85156C6.41194 2.89465 4.31726 5.0594 4.36036 7.67905C4.40263 10.2487 6.44657 12.2954 9.06769 12.3422C9.14752 12.3309 9.22751 12.3296 9.28767 12.3386C9.30766 12.3383 9.31766 12.3381 9.33766 12.3378C9.34766 12.3376 9.34766 12.3376 9.35766 12.3375C11.9158 12.2054 13.8913 10.0926 13.8591 7.52279C13.816 4.90314 11.6512 2.80846 9.03158 2.85156Z" fill="white"/>
<path d="M14.3112 14.9162C11.491 13.1023 6.94163 13.1771 4.1626 15.0831C2.90675 15.9539 2.22576 17.1152 2.246 18.3451C2.26623 19.5749 2.98488 20.7032 4.25853 21.5224C5.6738 22.4393 7.52128 22.8789 9.36103 22.8487C11.2008 22.8184 13.0328 22.3182 14.4172 21.3553C15.663 20.4847 16.3442 19.3333 16.3238 18.0935C16.2935 16.8638 15.5849 15.7353 14.3112 14.9162Z" fill="white"/>
<path d="M20.108 8.01052C20.2999 9.94762 18.9481 11.6701 17.0421 11.9315C17.0321 11.9316 17.0321 11.9316 17.0221 11.9318L16.9921 11.9323C16.9321 11.9333 16.8721 11.9343 16.8225 11.9551C15.8534 12.021 14.9584 11.7257 14.2791 11.1668C15.2939 10.23 15.8611 8.84048 15.7164 7.34266C15.6331 6.53392 15.341 5.79863 14.9107 5.17562C15.2875 4.9794 15.7255 4.85218 16.1748 4.80478C18.1317 4.60256 19.9055 6.03358 20.108 8.01052Z" fill="white"/>
<path d="M22.2596 17.2258C22.1955 18.197 21.5894 19.0471 20.5589 19.6341C19.5681 20.2005 18.3126 20.4812 17.0622 20.4718C17.7715 19.81 18.1781 18.9932 18.2439 18.132C18.3235 16.8905 17.714 15.7104 16.5186 14.7799C15.8399 14.261 15.0531 13.8539 14.1981 13.5579C16.3973 12.8817 19.184 13.2659 20.9165 14.6176C21.8485 15.3423 22.3338 16.2645 22.2596 17.2258Z" fill="white"/>
</svg>
