<svg width="25" height="24" viewBox="0 0 25 24" fill="none" xmlns="http://www.w3.org/2000/svg">
<path d="M22.0041 10.9702L22.0041 13.0302C22.0041 13.5802 21.5641 14.0302 21.0041 14.0502L19.0441 14.0502C17.9641 14.0502 16.9741 13.2602 16.8841 12.1802C16.8241 11.5502 17.0641 10.9602 17.4841 10.5502C17.8541 10.1702 18.3641 9.9502 18.9241 9.9502L21.0041 9.9502C21.5641 9.9702 22.0041 10.4202 22.0041 10.9702Z" fill="white"/>
<path d="M20.4739 15.55L19.0439 15.55C17.1439 15.55 15.5439 14.12 15.3839 12.3C15.2939 11.26 15.6739 10.22 16.4339 9.48C17.0739 8.82 17.9639 8.45 18.9239 8.45L20.4739 8.45C20.7639 8.45 21.0039 8.21 20.9739 7.92C20.7539 5.49 19.1439 3.83 16.7539 3.55C16.5139 3.51 16.2639 3.5 16.0039 3.5L7.00391 3.5C6.72391 3.5 6.45391 3.52 6.19391 3.56C3.64391 3.88 2.00391 5.78 2.00391 8.5L2.00391 15.5C2.00391 18.26 4.24391 20.5 7.00391 20.5L16.0039 20.5C18.8039 20.5 20.7339 18.75 20.9739 16.08C21.0039 15.79 20.7639 15.55 20.4739 15.55ZM13.0039 9.75L7.00391 9.75C6.59391 9.75 6.25391 9.41 6.25391 9C6.25391 8.59 6.59391 8.25 7.00391 8.25L13.0039 8.25C13.4139 8.25 13.7539 8.59 13.7539 9C13.7539 9.41 13.4139 9.75 13.0039 9.75Z" fill="white"/>
</svg>
