<svg width="40" height="40" viewBox="0 0 40 40" fill="none" xmlns="http://www.w3.org/2000/svg">
<rect width="40" height="40" rx="9" fill="white"/>
<path fill-rule="evenodd" clip-rule="evenodd" d="M13.9944 8C13.8338 8.45386 13.7464 8.9425 13.7464 9.45161V15.696H13.7455V20.9898C13.7455 24.4412 16.5344 27.239 19.9746 27.239H20.4508C23.6281 27.239 26.2038 24.6551 26.2038 21.4675C26.2038 18.28 23.6281 15.696 20.4508 15.696H18.0709V8H29.0833C29.5916 8 30.0791 8.20269 30.4386 8.56348C30.798 8.92427 31 9.4136 31 9.92383V16.9819C31 27.7313 21.9197 31.3025 20.099 31.9036C19.7099 32.0321 19.2901 32.0321 18.901 31.9036C17.0802 31.3025 8 27.7313 8 16.9819V9.92383C8 9.4136 8.20193 8.92427 8.56138 8.56348C8.92082 8.20269 9.40833 8 9.91666 8H13.9944ZM18.0722 21.3891C18.0722 20.191 19.0403 19.2187 20.2345 19.2187C21.4286 19.2187 22.3967 20.191 22.3967 21.3891C22.3967 22.587 21.4286 23.5594 20.2345 23.5594C19.0403 23.5594 18.0722 22.587 18.0722 21.3891Z" fill="url(#paint0_linear_1303_7502)"/>
<defs>
<linearGradient id="paint0_linear_1303_7502" x1="19.5" y1="8" x2="19.5" y2="32" gradientUnits="userSpaceOnUse">
<stop stop-color="#00A3FF"/>
<stop offset="1" stop-color="#4A3AFF"/>
</linearGradient>
</defs>
</svg>
