<svg width="current" height="current" viewBox="0 0 40 40" fill="none" xmlns="http://www.w3.org/2000/svg">
<path d="M36.5334 27.9163C35.9834 32.3497 32.3501 35.983 27.9168 36.533C25.2334 36.8663 22.7334 36.133 20.7834 34.6997C19.6668 33.883 19.9334 32.1497 21.2668 31.7497C26.2834 30.233 30.2334 26.2663 31.7668 21.2497C32.1668 19.933 33.9001 19.6663 34.7168 20.7663C36.1334 22.733 36.8668 25.233 36.5334 27.9163Z" fill="url(#paint0_linear_1053_8240)"/>
<path d="M16.6499 3.33301C9.29992 3.33301 3.33325 9.29967 3.33325 16.6497C3.33325 23.9997 9.29992 29.9663 16.6499 29.9663C23.9999 29.9663 29.9666 23.9997 29.9666 16.6497C29.9499 9.29967 23.9999 3.33301 16.6499 3.33301ZM15.0833 14.783L19.0999 16.183C20.5499 16.6997 21.2499 17.7163 21.2499 19.283C21.2499 21.083 19.8166 22.5663 18.0666 22.5663H17.9166V22.6497C17.9166 23.333 17.3499 23.8997 16.6666 23.8997C15.9833 23.8997 15.4166 23.333 15.4166 22.6497V22.5497C13.5666 22.4663 12.0833 20.9163 12.0833 18.983C12.0833 18.2997 12.6499 17.733 13.3333 17.733C14.0166 17.733 14.5833 18.2997 14.5833 18.983C14.5833 19.583 15.0166 20.0663 15.5499 20.0663H18.0499C18.4333 20.0663 18.7333 19.7163 18.7333 19.283C18.7333 18.6997 18.6333 18.6663 18.2499 18.533L14.2333 17.133C12.7999 16.633 12.0833 15.6163 12.0833 14.033C12.0833 12.233 13.5166 10.7497 15.2666 10.7497H15.4166V10.683C15.4166 9.99967 15.9833 9.43301 16.6666 9.43301C17.3499 9.43301 17.9166 9.99967 17.9166 10.683V10.783C19.7666 10.8663 21.2499 12.4163 21.2499 14.3497C21.2499 15.033 20.6833 15.5997 19.9999 15.5997C19.3166 15.5997 18.7499 15.033 18.7499 14.3497C18.7499 13.7497 18.3166 13.2663 17.7833 13.2663H15.2833C14.8999 13.2663 14.5999 13.6163 14.5999 14.0497C14.5833 14.6163 14.6833 14.6497 15.0833 14.783Z" fill="url(#paint1_linear_1053_8240)"/>
<defs>
<linearGradient id="paint0_linear_1053_8240" x1="28.349" y1="20.0801" x2="28.349" y2="36.6126" gradientUnits="userSpaceOnUse">
<stop stop-color="#0D99FF"/>
<stop offset="1" stop-color="#4A3AFF"/>
</linearGradient>
<linearGradient id="paint1_linear_1053_8240" x1="16.6499" y1="3.33301" x2="16.6499" y2="29.9663" gradientUnits="userSpaceOnUse">
<stop stop-color="#0D99FF"/>
<stop offset="1" stop-color="#4A3AFF"/>
</linearGradient>
</defs>
</svg>
