<svg width="24" height="24" viewBox="0 0 24 24" fill="none" xmlns="http://www.w3.org/2000/svg">
<path d="M12 21.5504C16.9706 21.5504 21 17.4153 21 12.3143C21 7.21329 16.9706 3.07812 12 3.07812C7.02944 3.07812 3 7.21329 3 12.3143C3 17.4153 7.02944 21.5504 12 21.5504Z" stroke="#323256" stroke-width="2" stroke-linecap="round" stroke-linejoin="round"/>
<path d="M15 14.6242C14.5278 15.2704 13.8694 15.7477 13.1181 15.9885C12.3669 16.2294 11.5608 16.2215 10.8141 15.9661C10.0675 15.7107 9.41804 15.2206 8.95784 14.5654C8.49764 13.9101 8.25 13.1229 8.25 12.3152C8.25 11.5075 8.49764 10.7202 8.95784 10.065C9.41804 9.40975 10.0675 8.9197 10.8141 8.66428C11.5608 8.40886 12.3669 8.40101 13.1181 8.64185C13.8694 8.88268 14.5278 9.35999 15 10.0062" stroke="#323256" stroke-width="2" stroke-linecap="round" stroke-linejoin="round"/>
</svg>
