<svg width="current" height="current" viewBox="0 0 423 426" fill="none" xmlns="http://www.w3.org/2000/svg">
<path d="M214.474 326.805C196.107 326.734 180.303 322.214 167.062 313.244C153.892 304.274 143.747 291.282 136.628 274.267C129.581 257.253 126.092 236.786 126.163 212.866C126.163 189.017 129.687 168.693 136.735 151.892C143.854 135.091 153.999 122.312 167.169 113.556C180.41 104.729 196.179 100.315 214.474 100.315C232.77 100.315 248.503 104.729 261.673 113.556C274.915 122.384 285.095 135.198 292.214 151.999C299.333 168.728 302.857 189.017 302.785 212.866C302.785 236.857 299.226 257.36 292.107 274.374C285.059 291.388 274.95 304.381 261.78 313.35C248.61 322.32 232.841 326.805 214.474 326.805ZM214.474 288.47C227.004 288.47 237.006 282.169 244.481 269.569C251.956 256.968 255.658 238.067 255.587 212.866C255.587 196.279 253.878 182.468 250.461 171.433C247.115 160.399 242.345 152.105 236.152 146.553C230.029 141 222.804 138.223 214.474 138.223C202.016 138.223 192.05 144.453 184.575 156.911C177.1 169.369 173.327 188.021 173.256 212.866C173.256 229.667 174.928 243.691 178.274 254.939C181.692 266.116 186.497 274.516 192.69 280.14C198.884 285.693 206.145 288.47 214.474 288.47Z" fill="#DDDDEB"/>
<g filter="url(#filter0_d_1291_7706)">
<path fill-rule="evenodd" clip-rule="evenodd" d="M141.847 188.996L158.705 179.263L187.574 229.265C187.619 229.343 187.665 229.422 187.712 229.499L192.04 236.996C200.781 252.137 220.142 257.324 235.283 248.583L237.153 247.503C250.292 239.917 255.387 223.748 249.444 210.167L267.629 201.905C273.933 236.745 252.953 263.057 247.742 268.92C246.358 270.477 244.51 271.544 242.47 271.964C232.92 273.93 183.832 281.196 156.364 233.62L138.328 202.381C137.024 200.123 136.662 197.444 137.322 194.933C137.982 192.423 139.61 190.287 141.847 188.996ZM258.841 177.417C258.438 176.673 258.02 175.927 257.588 175.178L239.552 143.939C238.248 141.681 236.109 140.028 233.605 139.345C231.101 138.661 228.438 139.003 226.201 140.294L177.738 168.275L197.402 202.334L207.657 196.414C218.308 190.264 231.201 191.513 240.385 198.566L258.841 177.417ZM227.762 213.029C224.359 210.638 219.745 210.246 215.93 212.449C210.674 215.483 208.925 222.293 211.96 227.549C214.994 232.804 221.766 234.695 227.022 231.66C231.746 228.933 233.636 223.155 231.767 218.198L217.657 224.608L227.762 213.029Z" fill="#323256"/>
</g>
<path d="M248.624 199.785L225.141 218.838L263.553 195.941L255.837 204.966L308.173 181.4L298.273 152.093L253.992 186.749L263.553 182.57L237.889 204.966L248.624 199.785Z" fill="#323256"/>
<path d="M9.61049 253.372V229.097L70.4769 133.205H91.4065V166.806H79.0196L40.6488 227.53V228.669H127.143V253.372H9.61049ZM79.5891 279V245.968L80.1586 235.219V133.205H109.061V279H79.5891Z" fill="#323256"/>
<path d="M290.612 253.372V229.097L351.479 133.205H372.408V166.806H360.022L321.651 227.53V228.669H408.145V253.372H290.612ZM360.591 279V245.968L361.161 235.219V133.205H390.063V279H360.591Z" fill="#323256"/>
<defs>
<filter id="filter0_d_1291_7706" x="135.289" y="139" width="135.22" height="137.967" filterUnits="userSpaceOnUse" color-interpolation-filters="sRGB">
<feFlood flood-opacity="0" result="BackgroundImageFix"/>
<feColorMatrix in="SourceAlpha" type="matrix" values="0 0 0 0 0 0 0 0 0 0 0 0 0 0 0 0 0 0 127 0" result="hardAlpha"/>
<feOffset dy="1.71082"/>
<feGaussianBlur stdDeviation="0.85541"/>
<feComposite in2="hardAlpha" operator="out"/>
<feColorMatrix type="matrix" values="0 0 0 0 0 0 0 0 0 0 0 0 0 0 0 0 0 0 0.25 0"/>
<feBlend mode="normal" in2="BackgroundImageFix" result="effect1_dropShadow_1291_7706"/>
<feBlend mode="normal" in="SourceGraphic" in2="effect1_dropShadow_1291_7706" result="shape"/>
</filter>
</defs>
</svg>
