<svg width="27" height="27" viewBox="0 0 27 27" fill="none" xmlns="http://www.w3.org/2000/svg">
<path d="M13.4998 9.28163C13.4998 6.96132 15.451 5.03124 17.7713 5.06288C18.5839 5.07226 19.3765 5.31613 20.0538 5.76517C20.7311 6.21422 21.2643 6.84932 21.5893 7.59413H25.3123L21.9057 11.0008C21.6859 14.4228 20.171 17.6326 17.6692 19.9777C15.1674 22.3228 11.8664 23.6271 8.43734 23.6254C5.06234 23.6254 4.21859 22.3598 4.21859 22.3598C4.21859 22.3598 7.59359 21.0941 9.28109 18.5629C9.28109 18.5629 2.53109 15.1879 4.21859 5.90663C4.21859 5.90663 8.43734 10.1254 13.4998 10.9691V9.28163Z" stroke="#323256" stroke-width="2" stroke-linecap="round" stroke-linejoin="round"/>
</svg>
