<svg width="92" height="114" viewBox="0 0 98 119" fill="none" xmlns="http://www.w3.org/2000/svg">
<g filter="url(#filter0_f_1422_9901)">
<ellipse cx="46.0612" cy="97.3652" rx="26.9323" ry="2.63468" fill="black" fill-opacity="0.49"/>
</g>
<path d="M73.0794 53.3359C71.8426 54.5286 69.9842 54.9959 68.1238 54.5822L54.8403 50.6495L45.8992 48.2697L32.8222 44.2851C31.1682 43.8195 29.3099 44.2868 27.8665 45.5314L20.3431 53.1539C19.1062 54.3466 18.4909 56.2645 18.96 58.1301L21.5666 68.4947C21.9836 70.1531 23.2266 71.6037 25.1392 72.2247L35.3213 75.1741C36.9752 75.6397 38.8336 75.1724 40.2769 73.9278L47.8003 66.3053C49.0372 65.1126 49.6526 63.1947 49.1834 61.329L47.4631 54.4884L56.4564 57.0756L58.2288 64.1235C58.6459 65.7818 58.237 67.6479 56.8458 69.0997L42.7772 82.9967C41.5403 84.1894 39.6819 84.6567 37.8215 84.243L18.3875 78.5511C16.5271 78.1374 15.2841 76.6867 14.8671 75.0284L9.96673 55.543C9.54968 53.8847 9.95857 52.0186 11.3498 50.5668L25.6249 36.6179C26.8618 35.4252 28.7201 34.9579 30.5805 35.3716L43.6054 39.1489L52.5987 41.736L65.6235 45.5133C67.2775 45.9789 69.1358 45.5116 70.5792 44.267L78.1547 36.8518C79.3916 35.6591 80.007 33.7412 79.5378 31.8755L76.9313 21.511C76.5142 19.8526 75.2712 18.402 73.3587 17.781L63.3831 14.7797C61.7291 14.314 59.8708 14.7814 58.4274 16.026L50.8518 23.4412C49.615 24.6338 48.9996 26.5518 49.4688 28.4174L51.137 35.0507L42.1437 32.4636L40.4233 25.623C40.0063 23.9647 40.4152 22.0986 41.8064 20.6467L56.0815 6.69785C57.3184 5.50519 59.1768 5.03784 61.0372 5.45157L80.2126 10.9881C81.8665 11.4537 83.316 12.8524 83.7851 14.7181L88.7376 34.4107C89.1546 36.0691 88.7458 37.9351 87.3545 39.387L73.0794 53.3359Z" fill="#8247E5"/>
<defs>
<filter id="filter0_f_1422_9901" x="0.128906" y="75.7305" width="91.8647" height="43.2695" filterUnits="userSpaceOnUse" color-interpolation-filters="sRGB">
<feFlood flood-opacity="0" result="BackgroundImageFix"/>
<feBlend mode="normal" in="SourceGraphic" in2="BackgroundImageFix" result="shape"/>
<feGaussianBlur stdDeviation="9.5" result="effect1_foregroundBlur_1422_9901"/>
</filter>
</defs>
</svg>
