<svg width="36" height="35" viewBox="0 0 36 35" fill="none" xmlns="http://www.w3.org/2000/svg">
<path d="M33.0003 15.9978V19.0019C33.0003 19.804 32.3403 20.4603 31.5003 20.4894H28.5603C26.9403 20.4894 25.4553 19.3373 25.3203 17.7623C25.2303 16.8436 25.5903 15.9832 26.2203 15.3853C26.7753 14.8311 27.5403 14.5103 28.3803 14.5103H31.5003C32.3403 14.5394 33.0003 15.1957 33.0003 15.9978Z" fill="white"/>
<path d="M30.705 22.6769H28.56C25.71 22.6769 23.31 20.5915 23.07 17.9373C22.935 16.4207 23.505 14.904 24.645 13.8248C25.605 12.8623 26.94 12.3228 28.38 12.3228H30.705C31.14 12.3228 31.5 11.9728 31.455 11.5498C31.125 8.00609 28.71 5.58525 25.125 5.17692C24.765 5.11859 24.39 5.104 24 5.104H10.5C10.08 5.104 9.675 5.13317 9.285 5.1915C5.46 5.65817 3 8.429 3 12.3957V22.604C3 26.629 6.36 29.8957 10.5 29.8957H24C28.2 29.8957 31.095 27.3436 31.455 23.4498C31.5 23.0269 31.14 22.6769 30.705 22.6769ZM19.5 14.2186H10.5C9.885 14.2186 9.375 13.7228 9.375 13.1248C9.375 12.5269 9.885 12.0311 10.5 12.0311H19.5C20.115 12.0311 20.625 12.5269 20.625 13.1248C20.625 13.7228 20.115 14.2186 19.5 14.2186Z" fill="white"/>
</svg>
