<svg width="74" height="74" viewBox="0 0 74 74" fill="none" xmlns="http://www.w3.org/2000/svg">
<path d="M61.7727 23.7899L45.5852 7.60238C45.1446 7.1729 44.5527 6.93407 43.9375 6.93754H16.1875C14.9609 6.93754 13.7845 7.42481 12.9171 8.29217C12.0498 9.15952 11.5625 10.3359 11.5625 11.5625V62.4375C11.5625 63.6642 12.0498 64.8405 12.9171 65.7079C13.7845 66.5753 14.9609 67.0625 16.1875 67.0625H57.8125C59.0391 67.0625 60.2155 66.5753 61.0829 65.7079C61.9502 64.8405 62.4375 63.6642 62.4375 62.4375V25.4375C62.441 24.8223 62.2021 24.2304 61.7727 23.7899ZM31.7102 49.2274C32.1444 49.6658 32.388 50.2579 32.388 50.875C32.388 51.4921 32.1444 52.0843 31.7102 52.5227C31.2681 52.9501 30.6774 53.189 30.0625 53.189C29.4477 53.189 28.8569 52.9501 28.4148 52.5227L21.4773 45.5852C21.0431 45.1468 20.7995 44.5546 20.7995 43.9375C20.7995 43.3204 21.0431 42.7283 21.4773 42.2899L28.4148 35.3524C28.8642 34.9836 29.4346 34.7952 30.0151 34.8237C30.5957 34.8522 31.1449 35.0956 31.5559 35.5067C31.9669 35.9177 32.2103 36.4669 32.2389 37.0474C32.2674 37.628 32.0789 38.1984 31.7102 38.6477L26.3914 43.9375L31.7102 49.2274ZM52.5227 45.5852L45.5852 52.5227C45.1431 52.9501 44.5524 53.189 43.9375 53.189C43.3227 53.189 42.7319 52.9501 42.2898 52.5227C41.8556 52.0843 41.612 51.4921 41.612 50.875C41.612 50.2579 41.8556 49.6658 42.2898 49.2274L47.6086 43.9375L42.2898 38.6477C41.9211 38.1984 41.7326 37.628 41.7612 37.0474C41.7897 36.4669 42.0331 35.9177 42.4441 35.5067C42.8551 35.0956 43.4043 34.8522 43.9849 34.8237C44.5654 34.7952 45.1358 34.9836 45.5852 35.3524L52.5227 42.2899C52.9569 42.7283 53.2005 43.3204 53.2005 43.9375C53.2005 44.5546 52.9569 45.1468 52.5227 45.5852ZM43.9375 25.4375V12.7188L56.6563 25.4375H43.9375Z" fill="#161849"/>
</svg>
