<svg width="16" height="18" viewBox="0 0 19 22" fill="none" xmlns="http://www.w3.org/2000/svg">
<path d="M14.4104 13.6524C13.9047 13.6516 13.4041 13.7527 12.9385 13.9497C12.4728 14.1468 12.0516 14.4356 11.7001 14.7991L7.33139 11.994C7.67241 11.1097 7.67241 10.1301 7.33139 9.24582L11.7001 6.44075C12.3147 7.06929 13.1286 7.46468 14.0026 7.55925C14.8765 7.65383 15.7562 7.44171 16.491 6.95919C17.2258 6.47668 17.7701 5.75377 18.0307 4.9142C18.2912 4.07464 18.2519 3.17061 17.9194 2.35685C17.5869 1.54308 16.9819 0.870186 16.2079 0.453321C15.434 0.0364559 14.5392 -0.0984569 13.6768 0.0716733C12.8143 0.241804 12.0378 0.706399 11.4801 1.38594C10.9225 2.06548 10.6183 2.91772 10.6198 3.79679C10.6213 4.26653 10.708 4.73209 10.8756 5.1709L6.50693 7.97596C5.98096 7.4356 5.30579 7.06439 4.56773 6.9098C3.82967 6.75521 3.06228 6.82427 2.36368 7.10813C1.66508 7.39199 1.06701 7.87777 0.645958 8.50334C0.224905 9.12891 0 9.86585 0 10.6199C0 11.374 0.224905 12.1109 0.645958 12.7365C1.06701 13.3621 1.66508 13.8478 2.36368 14.1317C3.06228 14.4156 3.82967 14.4846 4.56773 14.33C5.30579 14.1754 5.98096 13.8042 6.50693 13.2639L10.8756 16.0689C10.708 16.5077 10.6213 16.9733 10.6198 17.443C10.6198 18.1928 10.8421 18.9256 11.2586 19.549C11.6751 20.1724 12.2671 20.6582 12.9598 20.9451C13.6524 21.232 14.4146 21.3071 15.1499 21.1608C15.8852 21.0146 16.5606 20.6535 17.0908 20.1234C17.6209 19.5933 17.9819 18.9179 18.1282 18.1826C18.2744 17.4473 18.1994 16.6851 17.9125 15.9924C17.6256 15.2998 17.1397 14.7078 16.5163 14.2913C15.893 13.8747 15.1601 13.6524 14.4104 13.6524Z" fill="#323256"/>
</svg>
