<svg width="32" height="32" viewBox="0 0 32 32" fill="none" xmlns="http://www.w3.org/2000/svg">
<path d="M16 13V17" stroke="#F47458" stroke-width="2" stroke-linecap="round" stroke-linejoin="round"/>
<path d="M14.2758 5.00032L3.27577 24.0003C3.10053 24.3038 3.00812 24.6481 3.00781 24.9986C3.0075 25.349 3.0993 25.6934 3.274 25.9973C3.4487 26.3011 3.70018 26.5537 4.00324 26.7297C4.3063 26.9058 4.65029 26.9991 5.00077 27.0003H27.0008C27.3512 26.9991 27.6952 26.9058 27.9983 26.7297C28.3014 26.5537 28.5528 26.3011 28.7275 25.9973C28.9022 25.6934 28.994 25.349 28.9937 24.9986C28.9934 24.6481 28.901 24.3038 28.7258 24.0003L17.7258 5.00032C17.5518 4.6964 17.3007 4.44383 16.9978 4.26817C16.6949 4.09251 16.3509 4 16.0008 4C15.6506 4 15.3067 4.09251 15.0037 4.26817C14.7008 4.44383 14.4497 4.6964 14.2758 5.00032V5.00032Z" stroke="#F47458" stroke-width="2" stroke-linecap="round" stroke-linejoin="round"/>
<path d="M16 24C17.1046 24 18 23.1046 18 22C18 20.8954 17.1046 20 16 20C14.8954 20 14 20.8954 14 22C14 23.1046 14.8954 24 16 24Z" fill="#F47458"/>
</svg>
