<svg width="88" height="139" viewBox="0 0 135 153" fill="none" xmlns="http://www.w3.org/2000/svg">
<path fill-rule="evenodd" clip-rule="evenodd" d="M89.0098 123.826L105.887 125.869C114.111 126.864 121.766 121.029 122.985 112.835L134.489 35.5111C135.708 27.317 130.029 19.8674 121.805 18.8718L103.888 16.7031L103.49 19.6756L121.363 21.8392C127.943 22.6356 132.486 28.5953 131.51 35.1506L120.007 112.474C119.032 119.029 112.907 123.698 106.328 122.901L89.8807 120.91C89.6864 121.927 89.3922 122.901 89.0098 123.826Z" fill="url(#paint0_linear_532_4198)"/>
<path fill-rule="evenodd" clip-rule="evenodd" d="M45.9883 123.825L29.1115 125.868C20.8873 126.863 13.232 121.028 12.0129 112.834L0.509434 35.5101C-0.709606 27.3161 4.96922 19.8664 13.1935 18.8709L31.1097 16.7021L31.5086 19.6746L13.6349 21.8382C7.05552 22.6346 2.51246 28.5944 3.48769 35.1496L14.9912 112.473C15.9664 119.028 22.0907 123.697 28.67 122.9L45.1174 120.909C45.3117 121.926 45.6059 122.901 45.9883 123.825Z" fill="url(#paint1_linear_532_4198)"/>
<g filter="url(#filter0_f_532_4198)">
<ellipse cx="63.3375" cy="129.898" rx="36.5465" ry="3.5752" fill="black" fill-opacity="0.49"/>
</g>
<rect x="27.291" y="0.5" width="80.0379" height="116.584" rx="14.5" fill="url(#paint2_linear_532_4198)" stroke="#E5E8EB"/>
<path d="M91.839 50.5636V39.2186C91.8425 38.5645 91.6715 37.9213 91.3437 37.3553H91.3201C90.9857 36.7698 90.496 36.2881 89.9049 35.9637L69.1489 24.2884C68.5866 23.9744 67.9532 23.8096 67.3092 23.8096C66.6651 23.8096 66.0318 23.9744 65.4694 24.2884L44.7134 35.9637C44.1273 36.2948 43.6391 36.7748 43.2982 37.3553C43.2982 37.3615 43.2957 37.3675 43.2913 37.3719C43.2869 37.3764 43.2809 37.3788 43.2746 37.3788V37.426C42.9526 37.9687 42.7816 38.5876 42.7793 39.2186V50.5636V62.4748C42.7805 63.1471 42.9602 63.8071 43.3 64.3873C43.6398 64.9674 44.1275 65.447 44.7134 65.7769L55.0914 71.6027L65.4694 77.4521C65.992 77.7372 66.5729 77.8986 67.1676 77.9239H67.4743C68.0615 77.8983 68.6347 77.7369 69.1489 77.4521L79.5269 71.6027L89.9049 65.7769C90.4908 65.447 90.9785 64.9674 91.3183 64.3873C91.6581 63.8071 91.8378 63.1471 91.839 62.4748V50.5636ZM56.9076 55.3281L46.5531 49.4787V41.3178L65.6345 51.9552L65.4458 73.1122L57.8746 68.8431V56.9556C57.8735 56.6226 57.7832 56.2961 57.6132 56.0099C57.4431 55.7237 57.1994 55.4882 56.9076 55.3281ZM55.7518 34.0296L66.3893 39.9969C66.6664 40.1657 66.9847 40.2549 67.3092 40.2549C67.6336 40.2549 67.9519 40.1657 68.229 39.9969L78.8665 34.0296L86.1075 38.11L67.5214 48.6767L48.5344 38.11L55.7518 34.0296ZM69.4083 51.9552L88.0652 41.3414V49.4787L77.7108 55.3281C77.4189 55.4882 77.1752 55.7237 77.0052 56.0099C76.8351 56.2961 76.7448 56.6226 76.7437 56.9556V68.8431L69.2197 73.0887L69.4083 51.9552Z" fill="white"/>
<path d="M54.8888 98.4707C54.6909 98.6738 54.4149 98.7754 54.0607 98.7754C53.7065 98.7754 53.4279 98.6738 53.2248 98.4707C53.0268 98.2624 52.9279 97.9707 52.9279 97.5957V88.377C52.9279 88.002 53.032 87.7129 53.2404 87.5098C53.4487 87.3014 53.7404 87.1973 54.1154 87.1973C54.355 87.1973 54.5633 87.252 54.7404 87.3613C54.9227 87.4655 55.105 87.64 55.2873 87.8848L60.1623 94.6973H60.2248V88.3848C60.2248 88.0098 60.3237 87.7181 60.5216 87.5098C60.7195 87.3014 60.9982 87.1973 61.3576 87.1973C61.7117 87.1973 61.9878 87.3014 62.1857 87.5098C62.3836 87.7129 62.4826 88.0046 62.4826 88.3848V97.627C62.4826 97.9967 62.381 98.2806 62.1779 98.4785C61.98 98.6764 61.6961 98.7754 61.3263 98.7754C61.0711 98.7754 60.855 98.7259 60.6779 98.627C60.5008 98.5228 60.3237 98.3457 60.1466 98.0957L55.256 91.2441H55.1857V97.5957C55.1857 97.9707 55.0867 98.2624 54.8888 98.4707ZM66.4123 98.4551C66.2039 98.6686 65.9149 98.7754 65.5451 98.7754C65.1753 98.7754 64.8862 98.6686 64.6779 98.4551C64.4695 98.2363 64.3654 97.9342 64.3654 97.5488V88.5801C64.3654 88.1947 64.4695 87.8952 64.6779 87.6816C64.8862 87.4629 65.1753 87.3535 65.5451 87.3535H70.8185C71.1466 87.3535 71.407 87.4421 71.5998 87.6191C71.7925 87.791 71.8888 88.028 71.8888 88.3301C71.8888 88.6322 71.7899 88.8717 71.5919 89.0488C71.3992 89.2207 71.1414 89.3066 70.8185 89.3066H66.7248V92.3223H70.4357C70.743 92.3223 70.9878 92.4056 71.1701 92.5723C71.3524 92.7389 71.4435 92.9655 71.4435 93.252C71.4435 93.5436 71.3524 93.7728 71.1701 93.9395C70.993 94.1061 70.7482 94.1895 70.4357 94.1895H66.7248V97.5488C66.7248 97.9342 66.6206 98.2363 66.4123 98.4551ZM77.8888 98.4551C77.6805 98.6686 77.3914 98.7754 77.0216 98.7754C76.6518 98.7754 76.3628 98.6686 76.1544 98.4551C75.9461 98.2363 75.8419 97.9342 75.8419 97.5488V89.3066H73.5138C73.1909 89.3066 72.9305 89.2207 72.7326 89.0488C72.5399 88.8717 72.4435 88.6322 72.4435 88.3301C72.4435 88.028 72.5399 87.791 72.7326 87.6191C72.9253 87.4421 73.1857 87.3535 73.5138 87.3535H80.5373C80.8602 87.3535 81.118 87.4421 81.3107 87.6191C81.5034 87.791 81.5998 88.028 81.5998 88.3301C81.5998 88.6322 81.5008 88.8717 81.3029 89.0488C81.1102 89.2207 80.855 89.3066 80.5373 89.3066H78.2013V97.5488C78.2013 97.9342 78.0972 98.2363 77.8888 98.4551Z" fill="white"/>
<defs>
<filter id="filter0_f_532_4198" x="7.79102" y="107.323" width="111.094" height="45.1504" filterUnits="userSpaceOnUse" color-interpolation-filters="sRGB">
<feFlood flood-opacity="0" result="BackgroundImageFix"/>
<feBlend mode="normal" in="SourceGraphic" in2="BackgroundImageFix" result="shape"/>
<feGaussianBlur stdDeviation="9.5" result="effect1_foregroundBlur_532_4198"/>
</filter>
<linearGradient id="paint0_linear_532_4198" x1="89.168" y1="87.4833" x2="95.4985" y2="-68.7288" gradientUnits="userSpaceOnUse">
<stop stop-color="#BFA1F8"/>
<stop offset="1" stop-color="#3C38F0"/>
</linearGradient>
<linearGradient id="paint1_linear_532_4198" x1="45.8301" y1="87.4833" x2="39.4995" y2="-68.7288" gradientUnits="userSpaceOnUse">
<stop stop-color="#BFA1F8"/>
<stop offset="1" stop-color="#3C38F0"/>
</linearGradient>
<linearGradient id="paint2_linear_532_4198" x1="67.31" y1="0" x2="67.31" y2="135.858" gradientUnits="userSpaceOnUse">
<stop stop-color="#BFA1F8"/>
<stop offset="1" stop-color="#0DB4FF"/>
</linearGradient>
</defs>
</svg>
