<svg width="16" height="16" viewBox="0 0 25 25" fill="none" xmlns="http://www.w3.org/2000/svg">
<path d="M23 22.9999H10.4125L20.7125 12.7124L24 9.41237C24.1867 9.22756 24.3349 9.00757 24.4361 8.76512C24.5372 8.52267 24.5893 8.26257 24.5893 7.99987C24.5893 7.73717 24.5372 7.47707 24.4361 7.23462C24.3349 6.99217 24.1867 6.77218 24 6.58737L18.4125 0.999871C18.036 0.628868 17.5286 0.420898 17 0.420898C16.4714 0.420898 15.964 0.628868 15.5875 0.999871L0.587501 15.9999C0.401123 16.1848 0.253243 16.4049 0.152405 16.6473C0.0515658 16.8898 -0.000233085 17.1498 7.88436e-07 17.4124V22.9999C7.88436e-07 23.5303 0.210714 24.039 0.585787 24.4141C0.96086 24.7892 1.46957 24.9999 2 24.9999H23C23.2652 24.9999 23.5196 24.8945 23.7071 24.707C23.8946 24.5194 24 24.2651 24 23.9999C24 23.7347 23.8946 23.4803 23.7071 23.2928C23.5196 23.1052 23.2652 22.9999 23 22.9999ZM2 17.4124L14 5.41237L19.5875 10.9999L7.5875 22.9999H2V17.4124Z" fill="#161849"/>
</svg>
