<svg width="97" height="96" viewBox="0 0 97 96" fill="none" xmlns="http://www.w3.org/2000/svg">
<g filter="url(#filter0_b_999_8883)">
<path fill-rule="evenodd" clip-rule="evenodd" d="M40.4333 5.58513C45.0336 6.20144 50.6815 7.59021 57.8867 9.36189L58.2417 9.44919C65.4469 11.2208 71.0948 12.6095 75.4563 14.1968C79.9072 15.8166 83.3592 17.7567 85.9575 20.8329C87.5305 22.6952 88.8005 24.7935 89.7211 27.0508C91.2416 30.7793 91.3597 34.7374 90.7307 39.4319C90.1144 44.0321 88.7256 49.6802 86.954 56.8852L86.9046 57.0862C86.0033 60.7518 85.2046 63.9999 84.4387 66.8583C82.1858 75.2663 80.0507 81.0979 75.483 84.9561C73.6207 86.5291 71.5224 87.7991 69.2651 88.7196C65.5366 90.2401 61.5785 90.3583 56.884 89.7293C52.2838 89.113 46.636 87.7243 39.431 85.9527L39.0755 85.8652C31.8705 84.0937 26.2224 82.7049 21.8609 81.1177C17.4101 79.4979 13.9581 77.5577 11.3598 74.4816C9.8439 72.6868 8.60934 70.6729 7.69784 68.5088C7.66351 68.4273 7.62964 68.3456 7.59624 68.2637C6.07573 64.5352 5.95761 60.5771 6.58655 55.8826C7.20286 51.2823 8.59163 45.6344 10.3633 38.4292L10.4506 38.0742C12.2222 30.869 13.611 25.221 15.1982 20.8595C16.818 16.4086 18.7581 12.9567 21.8343 10.3584C23.6966 8.7854 25.7949 7.51534 28.0522 6.59482C31.7807 5.07431 35.7388 4.95619 40.4333 5.58513Z" fill="#C3E5FF"/>
<path d="M7.13326 68.4525L7.59624 68.2637L7.13327 68.4525C7.16738 68.5362 7.20198 68.6196 7.23704 68.7029C8.16816 70.9136 9.42929 72.9708 10.9778 74.8042C13.6554 77.9743 17.1989 79.9531 21.69 81.5875C26.0769 83.184 31.7465 84.5781 38.9278 86.3438L38.9561 86.3508L39.3116 86.4382L39.34 86.4452C46.5212 88.211 52.1905 89.605 56.8176 90.2249C61.5545 90.8595 65.6116 90.7495 69.4539 89.1826C71.7597 88.2423 73.9032 86.9449 75.8056 85.338C80.5067 81.3673 82.671 75.3871 84.9216 66.9877C85.689 64.124 86.4888 60.8713 87.3894 57.2083L87.3901 57.2056L87.4395 57.0045L87.4465 56.9762C89.2123 49.7949 90.6064 44.1253 91.2263 39.4983C91.8609 34.7614 91.751 30.7043 90.184 26.8619C89.2437 24.5561 87.9463 22.4127 86.3395 20.5103C83.6619 17.3402 80.1184 15.3613 75.6273 13.7269C71.2404 12.1304 65.5711 10.7365 58.3899 8.97073L58.3611 8.96365L58.006 8.87635L57.9773 8.86928C50.796 7.10348 45.1267 5.70945 40.4997 5.08955C35.7628 4.45493 31.7057 4.56491 27.8634 6.13184C25.5575 7.07217 23.4141 8.36956 21.5117 9.9764C18.3416 12.654 16.3628 16.1974 14.7284 20.6885C13.1319 25.0754 11.7379 30.7448 9.97214 37.926L9.96507 37.9548L9.87777 38.3098L9.8707 38.3386C8.1049 45.5198 6.71087 51.1891 6.09097 55.8162C5.45635 60.5531 5.56633 64.6101 7.13326 68.4525Z" stroke="url(#paint0_linear_999_8883)" stroke-linecap="round"/>
</g>
<g filter="url(#filter1_b_999_8883)">
<path fill-rule="evenodd" clip-rule="evenodd" d="M22.9126 16.536C27.527 16.0361 33.3431 16.0361 40.7629 16.0361H41.1286C48.5484 16.0361 54.3645 16.0361 58.9789 16.536C63.6878 17.0462 67.5032 18.106 70.7608 20.4728C72.733 21.9056 74.4673 23.64 75.9002 25.6121C78.267 28.8698 79.3268 32.6852 79.837 37.3941C80.3369 42.0084 80.3369 47.8247 80.3368 55.2443V55.4513C80.3368 59.2261 80.3368 62.571 80.2756 65.5296C80.0954 74.2323 79.4146 80.4051 75.9002 85.2423C74.4673 87.2144 72.733 88.9488 70.7608 90.3816C67.5032 92.7484 63.6878 93.8082 58.9789 94.3184C54.3646 94.8183 48.5486 94.8183 41.129 94.8183H40.7629C33.3432 94.8183 27.5269 94.8183 22.9126 94.3184C18.2037 93.8082 14.3883 92.7484 11.1307 90.3816C9.23011 89.0008 7.55039 87.3399 6.14853 85.456C6.09573 85.3851 6.04333 85.3138 5.99134 85.2423C3.62453 81.9846 2.56474 78.1692 2.05456 73.4603C1.55463 68.846 1.55466 63.0298 1.55469 55.61V55.2444C1.55466 47.8246 1.55463 42.0084 2.05456 37.3941C2.56474 32.6852 3.62453 28.8698 5.99134 25.6121C7.4242 23.64 9.15854 21.9056 11.1307 20.4728C14.3883 18.106 18.2037 17.0462 22.9126 16.536Z" fill="#C3E5FF"/>
<path d="M5.74739 85.7545L6.14853 85.456L5.74741 85.7545C7.17944 87.6789 8.89531 89.3756 10.8368 90.7861C14.1939 93.2252 18.1073 94.3007 22.8588 94.8155C27.5 95.3183 33.3385 95.3183 40.7337 95.3183H40.7629H41.129H41.1581C48.5533 95.3183 54.3915 95.3183 59.0327 94.8155C63.7842 94.3007 67.6976 93.2252 71.0547 90.7861C73.0693 89.3224 74.841 87.5508 76.3047 85.5361C79.9217 80.5578 80.5955 74.2338 80.7755 65.5399C80.8368 62.5758 80.8368 59.2263 80.8368 55.4542V55.4513V55.2443V55.2151C80.8369 47.8199 80.8369 41.9814 80.334 37.3402C79.8193 32.5888 78.7437 28.6753 76.3047 25.3183C74.841 23.3036 73.0693 21.532 71.0547 20.0683C67.6976 17.6292 63.7842 16.5537 59.0327 16.0389C54.3915 15.5361 48.5534 15.5361 41.1582 15.5361L41.1286 15.5361H40.7629L40.7333 15.5361C33.3382 15.5361 27.5 15.5361 22.8588 16.0389C18.1073 16.5537 14.1939 17.6292 10.8368 20.0683C8.8222 21.532 7.05053 23.3036 5.58684 25.3183C3.14778 28.6753 2.07226 32.5888 1.55747 37.3402C1.05463 41.9814 1.05466 47.8196 1.05469 55.2148L1.05469 55.2444V55.61L1.05469 55.6396C1.05465 63.0348 1.05463 68.873 1.55747 73.5142C2.07226 78.2656 3.14778 82.1791 5.58684 85.5361C5.63995 85.6092 5.69346 85.682 5.74739 85.7545Z" stroke="url(#paint1_linear_999_8883)" stroke-linecap="round"/>
</g>
<g filter="url(#filter2_d_999_8883)">
<rect x="17.375" y="34.5527" width="46.4613" height="45.7879" rx="20" fill="url(#paint2_linear_999_8883)" shape-rendering="crispEdges"/>
</g>
<rect x="39.5977" y="30.5117" width="22.894" height="19.5272" rx="9.7636" fill="url(#paint3_linear_999_8883)"/>
<rect x="53.0625" y="48.0195" width="5.38681" height="2.02005" rx="1" fill="#62BDFF"/>
<rect x="47.6758" y="50.0391" width="5.38681" height="2.02005" rx="1" fill="#62BDFF"/>
<rect x="53.0625" y="51.3867" width="5.38681" height="2.02005" rx="1" fill="#62BDFF"/>
<rect x="47.6758" y="53.4062" width="5.38681" height="2.02005" rx="1" fill="#62BDFF"/>
<rect x="53.0625" y="54.7539" width="5.38681" height="2.02005" rx="1" fill="#62BDFF"/>
<rect x="47.6758" y="56.7734" width="5.38681" height="2.02005" rx="1" fill="#62BDFF"/>
<rect x="53.0625" y="58.1201" width="5.38681" height="2.02005" rx="1" fill="#62BDFF"/>
<rect x="51.7188" y="68.8936" width="3.03008" height="2.02005" rx="1" fill="#62BDFF"/>
<rect x="47.6758" y="60.1406" width="5.38681" height="2.02005" rx="1" fill="#62BDFF"/>
<rect x="53.0625" y="61.4873" width="5.38681" height="2.02005" rx="1" fill="#62BDFF"/>
<path d="M49.8516 67.5068C49.8516 66.1261 50.9709 65.0068 52.3516 65.0068H54.4518C55.8326 65.0068 56.9518 66.1261 56.9518 67.5068V72.7805H49.8516V67.5068Z" stroke="#62BDFF" stroke-width="3"/>
<defs>
<filter id="filter0_b_999_8883" x="-18.7734" y="-19.7734" width="134.863" height="134.861" filterUnits="userSpaceOnUse" color-interpolation-filters="sRGB">
<feFlood flood-opacity="0" result="BackgroundImageFix"/>
<feGaussianBlur in="BackgroundImageFix" stdDeviation="12"/>
<feComposite in2="SourceAlpha" operator="in" result="effect1_backgroundBlur_999_8883"/>
<feBlend mode="normal" in="SourceGraphic" in2="effect1_backgroundBlur_999_8883" result="shape"/>
</filter>
<filter id="filter1_b_999_8883" x="-23.4453" y="-8.96387" width="128.781" height="128.782" filterUnits="userSpaceOnUse" color-interpolation-filters="sRGB">
<feFlood flood-opacity="0" result="BackgroundImageFix"/>
<feGaussianBlur in="BackgroundImageFix" stdDeviation="12"/>
<feComposite in2="SourceAlpha" operator="in" result="effect1_backgroundBlur_999_8883"/>
<feBlend mode="normal" in="SourceGraphic" in2="effect1_backgroundBlur_999_8883" result="shape"/>
</filter>
<filter id="filter2_d_999_8883" x="14.375" y="31.5527" width="62.4609" height="61.7881" filterUnits="userSpaceOnUse" color-interpolation-filters="sRGB">
<feFlood flood-opacity="0" result="BackgroundImageFix"/>
<feColorMatrix in="SourceAlpha" type="matrix" values="0 0 0 0 0 0 0 0 0 0 0 0 0 0 0 0 0 0 127 0" result="hardAlpha"/>
<feOffset dx="5" dy="5"/>
<feGaussianBlur stdDeviation="4"/>
<feComposite in2="hardAlpha" operator="out"/>
<feColorMatrix type="matrix" values="0 0 0 0 0.176471 0 0 0 0 0.556863 0 0 0 0 0.678431 0 0 0 0.5 0"/>
<feBlend mode="normal" in2="BackgroundImageFix" result="effect1_dropShadow_999_8883"/>
<feBlend mode="normal" in="SourceGraphic" in2="effect1_dropShadow_999_8883" result="shape"/>
</filter>
<linearGradient id="paint0_linear_999_8883" x1="19.8125" y1="0" x2="77.5531" y2="95.2852" gradientUnits="userSpaceOnUse">
<stop stop-color="white" stop-opacity="0.25"/>
<stop offset="1" stop-color="white" stop-opacity="0"/>
</linearGradient>
<linearGradient id="paint1_linear_999_8883" x1="1.55469" y1="16.0361" x2="80.3768" y2="94.7783" gradientUnits="userSpaceOnUse">
<stop stop-color="white" stop-opacity="0.25"/>
<stop offset="1" stop-color="white" stop-opacity="0"/>
</linearGradient>
<linearGradient id="paint2_linear_999_8883" x1="40.6056" y1="34.5527" x2="40.6056" y2="80.3406" gradientUnits="userSpaceOnUse">
<stop stop-color="white"/>
<stop offset="1" stop-color="white" stop-opacity="0.2"/>
</linearGradient>
<linearGradient id="paint3_linear_999_8883" x1="51.0446" y1="30.5117" x2="51.0446" y2="50.0389" gradientUnits="userSpaceOnUse">
<stop stop-color="white"/>
<stop offset="1" stop-color="white" stop-opacity="0.2"/>
</linearGradient>
</defs>
</svg>
