<svg width="27" height="27" viewBox="0 0 27 27" fill="none" xmlns="http://www.w3.org/2000/svg">
<path d="M9.28142 14.2279L18.7631 22.5705C18.8726 22.6675 19.0056 22.7344 19.1488 22.7645C19.292 22.7946 19.4406 22.7869 19.5799 22.7422C19.7193 22.6976 19.8446 22.6174 19.9437 22.5096C20.0427 22.4019 20.112 22.2702 20.1447 22.1276L24.1103 4.80959C24.1436 4.66045 24.1357 4.50507 24.0875 4.36006C24.0394 4.21504 23.9528 4.08582 23.8369 3.9862C23.721 3.88658 23.5803 3.82029 23.4297 3.79441C23.2791 3.76854 23.1243 3.78404 22.9818 3.83928L3.51228 11.4858C2.73181 11.7916 2.83728 12.9307 3.65994 13.0994L9.28142 14.2279Z" stroke="#323256" stroke-width="2" stroke-linecap="round" stroke-linejoin="round"/>
<path d="M9.28125 14.2279L23.6355 3.86035" stroke="#323256" stroke-width="2" stroke-linecap="round" stroke-linejoin="round"/>
<path d="M14.0168 18.3936L10.7262 21.6842C10.6088 21.8034 10.4586 21.885 10.2947 21.9187C10.1308 21.9523 9.96062 21.9365 9.80575 21.8732C9.65088 21.8099 9.51833 21.7019 9.42493 21.5631C9.33154 21.4243 9.28153 21.2609 9.28125 21.0936V14.2275" stroke="#323256" stroke-width="2" stroke-linecap="round" stroke-linejoin="round"/>
</svg>
