<svg width="24" height="24" viewBox="0 0 24 24" fill="none" xmlns="http://www.w3.org/2000/svg">
<g clip-path="url(#clip0_714_12372)">
<path d="M11 7H6C5.46957 7 4.96086 7.21071 4.58579 7.58579C4.21071 7.96086 4 8.46957 4 9V18C4 18.5304 4.21071 19.0391 4.58579 19.4142C4.96086 19.7893 5.46957 20 6 20H15C15.5304 20 16.0391 19.7893 16.4142 19.4142C16.7893 19.0391 17 18.5304 17 18V13" stroke="url(#paint0_linear_714_12372)" stroke-width="2" stroke-linecap="round" stroke-linejoin="round"/>
<path d="M10 14L20 4" stroke="url(#paint1_linear_714_12372)" stroke-width="2" stroke-linecap="round" stroke-linejoin="round"/>
<path d="M15 4H20V9" stroke="url(#paint2_linear_714_12372)" stroke-width="2" stroke-linecap="round" stroke-linejoin="round"/>
</g>
<defs>
<linearGradient id="paint0_linear_714_12372" x1="10.5" y1="7" x2="10.5" y2="20" gradientUnits="userSpaceOnUse">
<stop stop-color="#0D99FF"/>
<stop offset="1" stop-color="#4A3AFF"/>
</linearGradient>
<linearGradient id="paint1_linear_714_12372" x1="15" y1="4" x2="15" y2="14" gradientUnits="userSpaceOnUse">
<stop stop-color="#0D99FF"/>
<stop offset="1" stop-color="#4A3AFF"/>
</linearGradient>
<linearGradient id="paint2_linear_714_12372" x1="17.5" y1="4" x2="17.5" y2="9" gradientUnits="userSpaceOnUse">
<stop stop-color="#0D99FF"/>
<stop offset="1" stop-color="#4A3AFF"/>
</linearGradient>
<clipPath id="clip0_714_12372">
<rect width="24" height="24" fill="white"/>
</clipPath>
</defs>
</svg>
