<svg width="27" height="27" viewBox="0 0 27 27" fill="none" xmlns="http://www.w3.org/2000/svg">
<path d="M10.125 15.6094C11.057 15.6094 11.8125 14.8539 11.8125 13.9219C11.8125 12.9899 11.057 12.2344 10.125 12.2344C9.19302 12.2344 8.4375 12.9899 8.4375 13.9219C8.4375 14.8539 9.19302 15.6094 10.125 15.6094Z" fill="#323256"/>
<path d="M16.875 15.6094C17.807 15.6094 18.5625 14.8539 18.5625 13.9219C18.5625 12.9899 17.807 12.2344 16.875 12.2344C15.943 12.2344 15.1875 12.9899 15.1875 13.9219C15.1875 14.8539 15.943 15.6094 16.875 15.6094Z" fill="#323256"/>
<path d="M15.957 18.4153L17.6234 21.7376C17.7056 21.9102 17.8452 22.0488 18.0184 22.1296C18.1917 22.2105 18.3876 22.2285 18.5727 22.1805C21.1566 21.5477 23.3926 20.4508 25.0168 19.0376C25.1393 18.9295 25.2282 18.7887 25.273 18.6316C25.3179 18.4746 25.3168 18.308 25.2699 18.1516L21.6945 6.21255C21.6597 6.09037 21.5968 5.97806 21.5107 5.88464C21.4246 5.79122 21.3178 5.7193 21.1988 5.67466C20.1887 5.26025 19.144 4.93556 18.077 4.70435C17.8719 4.65944 17.6575 4.69161 17.4746 4.79471C17.2917 4.89781 17.1533 5.06463 17.0855 5.26334L15.9781 8.59615" stroke="#323256" stroke-width="2" stroke-linecap="round" stroke-linejoin="round"/>
<path d="M11.043 18.4153L9.37656 21.7376C9.29445 21.9102 9.15478 22.0488 8.98156 22.1296C8.80835 22.2105 8.61238 22.2285 8.42734 22.1805C5.84336 21.5477 3.60742 20.4508 1.9832 19.0376C1.86075 18.9295 1.77182 18.7887 1.72696 18.6316C1.6821 18.4746 1.68318 18.308 1.73007 18.1516L5.30547 6.21255C5.34026 6.09037 5.40324 5.97806 5.48933 5.88464C5.57542 5.79122 5.68223 5.7193 5.80117 5.67466C6.81131 5.26025 7.85596 4.93556 8.92304 4.70435C9.12811 4.65944 9.34253 4.69161 9.52539 4.79471C9.70825 4.89781 9.84674 5.06463 9.91445 5.26334L11.0219 8.59615" stroke="#323256" stroke-width="2" stroke-linecap="round" stroke-linejoin="round"/>
<path d="M19.1002 17.7188C17.4971 18.2566 15.567 18.5625 13.4998 18.5625C11.4326 18.5625 9.50254 18.2566 7.89941 17.7188" stroke="#323256" stroke-width="2" stroke-linecap="round" stroke-linejoin="round"/>
<path d="M18.5625 9.11299C16.9148 8.65271 15.2107 8.42551 13.5 8.43799C11.7893 8.42551 10.0852 8.65271 8.4375 9.11299" stroke="#323256" stroke-width="2" stroke-linecap="round" stroke-linejoin="round"/>
</svg>
