<svg width="18" height="18" viewBox="0 0 24 24" fill="none" xmlns="http://www.w3.org/2000/svg">
<path d="M20.5784 11.3431L4.74402 2.47438C4.61064 2.40069 4.45798 2.36938 4.30637 2.38462C4.15475 2.39985 4.01137 2.46091 3.89532 2.55965C3.77927 2.6584 3.69605 2.79015 3.65674 2.93737C3.61742 3.0846 3.62389 3.2403 3.67527 3.38375L6.65652 11.7463C6.7222 11.9086 6.7222 12.0901 6.65652 12.2525L3.67527 20.615C3.62389 20.7585 3.61742 20.9142 3.65674 21.0614C3.69605 21.2086 3.77927 21.3404 3.89532 21.4391C4.01137 21.5379 4.15475 21.5989 4.30637 21.6141C4.45798 21.6294 4.61064 21.5981 4.74402 21.5244L20.5784 12.6556C20.6956 12.5908 20.7933 12.4957 20.8614 12.3803C20.9294 12.2649 20.9653 12.1334 20.9653 11.9994C20.9653 11.8654 20.9294 11.7339 20.8614 11.6185C20.7933 11.5031 20.6956 11.408 20.5784 11.3431V11.3431Z" stroke="#0D99FF" stroke-width="2" stroke-linecap="round" stroke-linejoin="round"/>
<path d="M6.75 12H12.75" stroke="#0D99FF" stroke-width="2" stroke-linecap="round" stroke-linejoin="round"/>
</svg>
