<svg width="108" height="108" viewBox="0 0 108 108" fill="none" xmlns="http://www.w3.org/2000/svg">
<rect width="108" height="108" rx="39" fill="#2E65FF" fill-opacity="0.23"/>
<path fill-rule="evenodd" clip-rule="evenodd" d="M41.0033 16.4822C49.4284 14.5059 58.1966 14.5059 66.6217 16.4822C78.7887 19.3362 88.2888 28.8363 91.1428 41.0033C93.1191 49.4284 93.1191 58.1966 91.1428 66.6217C88.2888 78.7887 78.7887 88.2888 66.6217 91.1428C58.1966 93.1191 49.4284 93.1191 41.0033 91.1428C28.8363 88.2888 19.3362 78.7887 16.4822 66.6217C14.5059 58.1966 14.5059 49.4284 16.4822 41.0033C19.3362 28.8363 28.8363 19.3362 41.0033 16.4822ZM66.976 47.2459C67.9094 46.2458 67.8554 44.6784 66.8553 43.745C65.8552 42.8116 64.2878 42.8656 63.3544 43.8657L50.6547 57.4725L44.2111 51.0288C43.2437 50.0615 41.6754 50.0615 40.7081 51.0288C39.7408 51.9961 39.7408 53.5645 40.7081 54.5318L48.9647 62.7884C49.4397 63.2634 50.0872 63.5251 50.7589 63.5135C51.4305 63.5019 52.0686 63.2181 52.527 62.727L66.976 47.2459Z" fill="url(#paint0_linear_1035_7789)"/>
<defs>
<linearGradient id="paint0_linear_1035_7789" x1="53.8125" y1="15" x2="53.8125" y2="92.625" gradientUnits="userSpaceOnUse">
<stop stop-color="#0D99FF"/>
<stop offset="1" stop-color="#4A3AFF"/>
</linearGradient>
</defs>
</svg>
