<svg width="56" height="56" viewBox="0 0 56 56" fill="none" xmlns="http://www.w3.org/2000/svg">
<path d="M51.3337 25.5968V30.4035C51.3337 31.6868 50.307 32.7368 49.0003 32.7835H44.427C41.907 32.7835 39.597 30.9401 39.387 28.4201C39.247 26.9501 39.807 25.5735 40.787 24.6168C41.6503 23.7301 42.8403 23.2168 44.147 23.2168H49.0003C50.307 23.2635 51.3337 24.3135 51.3337 25.5968Z" fill="#323256"/>
<path d="M48.9298 37.5194C48.3698 43.7494 43.8665 47.8327 37.3332 47.8327H16.3332C9.89317 47.8327 4.6665 42.606 4.6665 36.166V19.8327C4.6665 13.486 8.49317 9.05268 14.4432 8.30602C15.0498 8.21268 15.6798 8.16602 16.3332 8.16602H37.3332C37.9398 8.16602 38.5232 8.18935 39.0832 8.28268C44.6598 8.93602 48.4398 12.8327 48.9298 18.4794C48.9998 19.156 48.4398 19.716 47.7632 19.716H44.1465C41.9065 19.716 39.8298 20.5793 38.3365 22.1193C36.5632 23.846 35.6765 26.2727 35.8865 28.6994C36.2598 32.946 39.9932 36.2827 44.4265 36.2827H47.7632C48.4398 36.2827 48.9998 36.8427 48.9298 37.5194Z" fill="#323256"/>
</svg>
