<svg width="currnet" height="current" viewBox="0 0 472 408" fill="none" xmlns="http://www.w3.org/2000/svg">
<g filter="url(#filter0_d_1286_7882)">
<path fill-rule="evenodd" clip-rule="evenodd" d="M15.3333 116.893L54.749 94.1366L122.244 211.041C122.309 211.154 122.375 211.267 122.441 211.379C122.487 211.457 122.533 211.534 122.579 211.611L132.687 229.117C153.125 264.517 198.391 276.646 233.791 256.208L238.164 253.683C268.884 235.947 280.796 198.145 266.903 166.391L309.418 147.076C324.159 228.533 275.106 290.053 262.922 303.762C259.686 307.402 255.366 309.896 250.595 310.878C228.267 315.474 113.497 332.464 49.2737 221.227L7.10498 148.188C4.05657 142.908 3.2109 136.645 4.754 130.776C6.29711 124.907 10.1026 119.913 15.3333 116.893ZM288.873 89.822C287.929 88.0819 286.952 86.3367 285.942 84.5863L243.773 11.5479C240.724 6.26794 235.723 2.40388 229.869 0.805775C224.015 -0.792325 217.787 0.00644587 212.557 3.02638L99.2478 68.4452L145.223 148.076L169.199 134.234C194.104 119.855 224.25 122.775 245.721 139.267L288.873 89.822ZM216.209 173.083C208.251 167.493 197.462 166.575 188.542 171.725C176.254 178.82 172.165 194.742 179.26 207.03C186.354 219.318 202.188 223.738 214.476 216.643C225.52 210.267 229.941 196.759 225.572 185.169L192.581 200.157L216.209 173.083Z" fill="#323256"/>
</g>
<path d="M266.701 322.194L134.701 362.404L129.766 339.215L266.701 322.194Z" fill="#DDDDEB"/>
<path d="M273.629 325.884C240.1 337.834 172.072 361.884 168.193 362.495C203.458 366.833 286.344 380.315 335.777 399.539C385.21 418.763 393.46 375.801 391.407 351.917L297.547 292.166L273.629 325.884Z" fill="#DDDDEB"/>
<path d="M435.128 267.358C415.898 270.541 361.977 279.175 300.126 288.246L429.18 325.843L472 315.101L383.982 298.391L404.202 293.617L395.876 280.488L435.128 267.358Z" fill="#DDDDEB"/>
<path d="M76.8001 312.714C96.0294 315.897 149.951 324.53 211.802 333.601L82.7473 371.199L39.9274 360.457L127.946 343.747L107.726 338.972L116.052 325.843L76.8001 312.714Z" fill="#DDDDEB"/>
<path d="M264.987 142.117L210.08 186.664L299.891 133.13L281.851 154.231L404.214 99.1332L381.067 30.6104L277.537 111.638L299.891 101.869L239.886 154.231L264.987 142.117Z" fill="#323256"/>
<defs>
<filter id="filter0_d_1286_7882" x="0" y="0" width="316.154" height="322.574" filterUnits="userSpaceOnUse" color-interpolation-filters="sRGB">
<feFlood flood-opacity="0" result="BackgroundImageFix"/>
<feColorMatrix in="SourceAlpha" type="matrix" values="0 0 0 0 0 0 0 0 0 0 0 0 0 0 0 0 0 0 127 0" result="hardAlpha"/>
<feOffset dy="4"/>
<feGaussianBlur stdDeviation="2"/>
<feComposite in2="hardAlpha" operator="out"/>
<feColorMatrix type="matrix" values="0 0 0 0 0 0 0 0 0 0 0 0 0 0 0 0 0 0 0.25 0"/>
<feBlend mode="normal" in2="BackgroundImageFix" result="effect1_dropShadow_1286_7882"/>
<feBlend mode="normal" in="SourceGraphic" in2="effect1_dropShadow_1286_7882" result="shape"/>
</filter>
</defs>
</svg>
