<svg width="46" height="46" viewBox="0 0 46 46" fill="none" xmlns="http://www.w3.org/2000/svg">
<path d="M41.3242 20.5851L38.7175 17.5567C38.2192 16.9817 37.8167 15.9084 37.8167 15.1417V11.8834C37.8167 9.85174 36.1492 8.18424 34.1175 8.18424H30.8592C30.1117 8.18424 29.0192 7.78174 28.4442 7.28341L25.4158 4.67674C24.0933 3.5459 21.9275 3.5459 20.5858 4.67674L17.5767 7.30257C17.0017 7.78174 15.9092 8.18424 15.1617 8.18424H11.8458C9.81417 8.18424 8.14667 9.85174 8.14667 11.8834V15.1609C8.14667 15.9084 7.74417 16.9817 7.265 17.5567L4.6775 20.6042C3.56583 21.9267 3.56583 24.0734 4.6775 25.3959L7.265 28.4434C7.74417 29.0184 8.14667 30.0917 8.14667 30.8392V34.1167C8.14667 36.1484 9.81417 37.8159 11.8458 37.8159H15.1617C15.9092 37.8159 17.0017 38.2184 17.5767 38.7167L20.605 41.3234C21.9275 42.4542 24.0933 42.4542 25.435 41.3234L28.4633 38.7167C29.0383 38.2184 30.1117 37.8159 30.8783 37.8159H34.1367C36.1683 37.8159 37.8358 36.1484 37.8358 34.1167V30.8584C37.8358 30.1109 38.2383 29.0184 38.7367 28.4434L41.3433 25.4151C42.455 24.0926 42.455 21.9076 41.3242 20.5851ZM30.9742 19.3776L21.7167 28.6351C21.4483 28.9034 21.0842 29.0567 20.7008 29.0567C20.3175 29.0567 19.9533 28.9034 19.685 28.6351L15.0467 23.9967C14.4908 23.4409 14.4908 22.5209 15.0467 21.9651C15.6025 21.4092 16.5225 21.4092 17.0783 21.9651L20.7008 25.5876L28.9425 17.3459C29.4983 16.7901 30.4183 16.7901 30.9742 17.3459C31.53 17.9017 31.53 18.8217 30.9742 19.3776Z" fill="url(#paint0_linear_201_304)"/>
<defs>
<linearGradient id="paint0_linear_201_304" x1="23.0092" y1="3.82861" x2="23.0092" y2="42.1715" gradientUnits="userSpaceOnUse">
<stop stop-color="#14D3B2"/>
<stop offset="1" stop-color="#3C65ED"/>
</linearGradient>
</defs>
</svg>
