<svg width="62" height="62" viewBox="0 0 62 62" fill="none" xmlns="http://www.w3.org/2000/svg">
<path d="M51.2287 22.4748L39.5262 10.7723C37.072 8.31815 33.6879 7.00065 30.2262 7.18149L17.3095 7.80149C12.1429 8.03399 8.03536 12.1415 7.77703 17.2823L7.15703 30.199C7.00203 33.6607 8.2937 37.0448 10.7479 39.499L22.4504 51.2015C27.2554 56.0065 35.057 56.0065 39.8879 51.2015L51.2287 39.8607C56.0595 35.0815 56.0595 27.2798 51.2287 22.4748ZM24.5429 31.9815C20.4354 31.9815 17.1029 28.649 17.1029 24.5415C17.1029 20.434 20.4354 17.1015 24.5429 17.1015C28.6504 17.1015 31.9829 20.434 31.9829 24.5415C31.9829 28.649 28.6504 31.9815 24.5429 31.9815Z" fill="#292D32"/>
</svg>
