<svg width="20" height="20" viewBox="0 0 20 20" fill="none" xmlns="http://www.w3.org/2000/svg">
<path d="M18.855 9C18.2137 9 17.7099 9.48465 17.7099 10.1015C17.6947 12.1575 16.8702 14.0814 15.374 15.5207C13.8626 16.9746 11.8473 17.7824 9.70994 17.7824C7.57254 17.7824 5.55724 16.9746 4.04579 15.5207C3.99999 15.4766 3.96948 15.4326 3.92367 15.3885H5.19083C5.81678 15.3885 6.33587 14.8892 6.33587 14.287C6.33587 13.6849 5.81678 13.1856 5.19083 13.1856H1.14504C0.519084 13.1856 0 13.6849 0 14.287V18.1789C0 18.781 0.519084 19.2804 1.14504 19.2804C1.77099 19.2804 2.29008 18.781 2.29008 18.1789V16.9306C2.33588 16.9746 2.38167 17.0334 2.42747 17.0921C4.3664 18.9573 6.96185 20 9.70994 20C12.458 20 15.0534 18.972 16.9924 17.0921C18.916 15.2417 19.9847 12.7597 20 10.1162C20 9.49933 19.4809 9.01469 18.855 9Z" fill="#323256"/>
<path d="M1.08809 11C1.68273 11 2.16135 10.5095 2.17586 9.9C2.20486 7.86351 3.00256 5.94595 4.3949 4.50405C5.83075 3.03243 7.74521 2.21486 9.77571 2.21486C11.8062 2.21486 13.7207 3.03243 15.1566 4.50405C15.2001 4.54865 15.2291 4.59324 15.2726 4.63784H14.0688C13.4742 4.63784 12.981 5.14324 12.981 5.7527C12.981 6.36216 13.4742 6.86757 14.0688 6.86757H17.9122C18.5069 6.86757 19 6.36216 19 5.7527V1.82838C19 1.21892 18.5069 0.713514 17.9122 0.713514C17.3176 0.713514 16.8245 1.21892 16.8245 1.82838V3.10676C16.781 3.06216 16.7374 3.0027 16.6939 2.94324C14.852 1.05541 12.3864 0 9.77571 0C7.16507 0 4.69948 1.04054 2.85753 2.94324C1.04458 4.78649 0.0293282 7.25406 0.000321103 9.87027C-0.0141825 10.4797 0.464421 10.9851 1.07357 11C1.08807 11 1.08809 11 1.08809 11Z" fill="#323256"/>
</svg>
