<svg width="66" height="66" viewBox="0 0 66 66" fill="none" xmlns="http://www.w3.org/2000/svg">
<path d="M64.0622 32.5311C64.6144 32.5311 65.0638 32.0831 65.0468 31.5311C64.8264 24.3607 62.2408 17.4534 57.6779 11.8936C52.9034 6.07572 46.2592 2.09337 38.8776 0.625076C31.496 -0.84322 23.8336 0.293385 17.196 3.84123C10.5585 7.38907 5.35645 13.1286 2.47628 20.082C-0.403885 27.0353 -0.783974 34.7722 1.40078 41.9744C3.58553 49.1765 8.19994 55.3983 14.4578 59.5797C20.7156 63.761 28.2297 65.6432 35.7197 64.9055C42.8775 64.2005 49.59 61.1446 54.8161 56.2303C55.2184 55.8519 55.2174 55.2175 54.8269 54.8269L49.592 49.592C49.2015 49.2015 48.5698 49.2033 48.1627 49.5766C44.4786 52.9553 39.7906 55.0558 34.798 55.5475C29.473 56.072 24.1309 54.7339 19.6819 51.7612C15.233 48.7885 11.9524 44.3651 10.3991 39.2447C8.84589 34.1244 9.11612 28.6239 11.1638 23.6804C13.2114 18.737 16.9098 14.6565 21.6287 12.1342C26.3476 9.61184 31.7952 8.80377 37.0431 9.84765C42.291 10.8915 47.0147 13.7228 50.4091 17.8589C53.5918 21.737 55.4213 26.5372 55.6373 31.5314C55.6612 32.0831 56.1066 32.5311 56.6589 32.5311H64.0622Z" fill="url(#paint0_linear_1076_7290)"/>
<defs>
<linearGradient id="paint0_linear_1076_7290" x1="32.5311" y1="-10.1905" x2="29.0036" y2="65.0622" gradientUnits="userSpaceOnUse">
<stop stop-color="#0D99FF"/>
<stop offset="1" stop-color="#0D99FF" stop-opacity="0"/>
</linearGradient>
</defs>
</svg>
