<svg width="57" height="49" viewBox="0 0 57 49" fill="none" xmlns="http://www.w3.org/2000/svg">
<path d="M39.2812 16.9531C39.2812 17.8109 38.9405 18.6336 38.3339 19.2402C37.7274 19.8467 36.9047 20.1875 36.0469 20.1875C35.1891 20.1875 34.3664 19.8467 33.7598 19.2402C33.1533 18.6336 32.8125 17.8109 32.8125 16.9531C32.8125 16.0953 33.1533 15.2726 33.7598 14.6661C34.3664 14.0595 35.1891 13.7188 36.0469 13.7188C36.9047 13.7188 37.7274 14.0595 38.3339 14.6661C38.9405 15.2726 39.2812 16.0953 39.2812 16.9531ZM56.5312 5.09375V39.5938V43.9062C56.5312 45.05 56.0769 46.1469 55.2681 46.9556C54.4594 47.7644 53.3625 48.2188 52.2188 48.2188H4.78125C3.6375 48.2188 2.5406 47.7644 1.73185 46.9556C0.923101 46.1469 0.46875 45.05 0.46875 43.9062V35.2812V5.09375C0.46875 3.95 0.923101 2.8531 1.73185 2.04435C2.5406 1.2356 3.6375 0.78125 4.78125 0.78125H52.2188C53.3625 0.78125 54.4594 1.2356 55.2681 2.04435C56.0769 2.8531 56.5312 3.95 56.5312 5.09375ZM52.2188 34.3918V5.09375H4.78125V30.0793L14.673 20.1875C15.4849 19.3875 16.579 18.9391 17.7188 18.9391C18.8585 18.9391 19.9526 19.3875 20.7645 20.1875L32.8125 32.2355L38.3918 26.6562C39.2037 25.8563 40.2977 25.4078 41.4375 25.4078C42.5773 25.4078 43.6713 25.8563 44.4832 26.6562L52.2188 34.3918Z" fill="#0D99FF" fill-opacity="0.14"/>
</svg>
