<svg width="36" height="36" viewBox="0 0 44 44" fill="none" xmlns="http://www.w3.org/2000/svg">
<g clip-path="url(#clip0_816_4986)">
<mask id="path-1-outside-1_816_4986" maskUnits="userSpaceOnUse" x="3.5" y="5.33398" width="37" height="34" fill="black">
<rect fill="white" x="3.5" y="5.33398" width="37" height="34"/>
<path d="M27.5 18.334L20.1667 25.6673L31.1667 36.6673L38.5 7.33398L5.5 20.1673L12.8333 23.834L16.5 34.834L22 27.5007"/>
</mask>
<path d="M27.5 18.334L20.1667 25.6673L31.1667 36.6673L38.5 7.33398L5.5 20.1673L12.8333 23.834L16.5 34.834L22 27.5007" fill="url(#paint0_linear_816_4986)"/>
<path d="M28.9142 19.7482C29.6953 18.9671 29.6953 17.7008 28.9142 16.9198C28.1332 16.1387 26.8668 16.1387 26.0858 16.9198L28.9142 19.7482ZM20.1667 25.6673L18.7525 24.2531C17.9714 25.0342 17.9714 26.3005 18.7525 27.0815L20.1667 25.6673ZM31.1667 36.6673L29.7525 38.0815C30.262 38.591 31.0061 38.7871 31.7005 38.5947C32.3949 38.4024 32.9322 37.8514 33.107 37.1524L31.1667 36.6673ZM38.5 7.33398L40.4403 7.81906C40.6216 7.09378 40.3833 6.32792 39.8224 5.8336C39.2616 5.33927 38.4719 5.19901 37.7751 5.46997L38.5 7.33398ZM5.5 20.1673L4.77511 18.3033C4.03783 18.59 3.53883 19.2844 3.50215 20.0746C3.46548 20.8648 3.89802 21.6024 4.60557 21.9562L5.5 20.1673ZM12.8333 23.834L14.7307 23.2015C14.563 22.6983 14.2022 22.2823 13.7278 22.0451L12.8333 23.834ZM16.5 34.834L14.6026 35.4664C14.8379 36.1722 15.4454 36.689 16.1796 36.8082C16.9139 36.9273 17.6537 36.6291 18.1 36.034L16.5 34.834ZM23.6 28.7007C24.2627 27.817 24.0837 26.5634 23.2 25.9007C22.3163 25.2379 21.0627 25.417 20.4 26.3007L23.6 28.7007ZM26.0858 16.9198L18.7525 24.2531L21.5809 27.0815L28.9142 19.7482L26.0858 16.9198ZM18.7525 27.0815L29.7525 38.0815L32.5809 35.2531L21.5809 24.2531L18.7525 27.0815ZM33.107 37.1524L40.4403 7.81906L36.5597 6.84891L29.2264 36.1822L33.107 37.1524ZM37.7751 5.46997L4.77511 18.3033L6.22489 22.0313L39.2249 9.19799L37.7751 5.46997ZM4.60557 21.9562L11.9389 25.6228L13.7278 22.0451L6.39443 18.3785L4.60557 21.9562ZM10.936 24.4664L14.6026 35.4664L18.3974 34.2015L14.7307 23.2015L10.936 24.4664ZM18.1 36.034L23.6 28.7007L20.4 26.3007L14.9 33.634L18.1 36.034Z" fill="url(#paint1_linear_816_4986)" mask="url(#path-1-outside-1_816_4986)"/>
</g>
<defs>
<linearGradient id="paint0_linear_816_4986" x1="22" y1="7.33398" x2="22" y2="36.6673" gradientUnits="userSpaceOnUse">
<stop stop-color="#0D99FF"/>
<stop offset="1" stop-color="#4A3AFF"/>
</linearGradient>
<linearGradient id="paint1_linear_816_4986" x1="22" y1="7.33398" x2="22" y2="36.6673" gradientUnits="userSpaceOnUse">
<stop stop-color="#0D99FF"/>
<stop offset="1" stop-color="#4A3AFF"/>
</linearGradient>
<clipPath id="clip0_816_4986">
<rect width="44" height="44" fill="white"/>
</clipPath>
</defs>
</svg>
