<svg width="36" height="36" viewBox="0 0 44 44" fill="none" xmlns="http://www.w3.org/2000/svg">
<path d="M22 27.5C25.0376 27.5 27.5 25.0376 27.5 22C27.5 18.9624 25.0376 16.5 22 16.5C18.9624 16.5 16.5 18.9624 16.5 22C16.5 25.0376 18.9624 27.5 22 27.5Z" fill="url(#paint0_linear_578_13491)"/>
<path d="M29.5625 4.8125H14.4375C11.8848 4.8125 9.43663 5.82656 7.6316 7.6316C5.82656 9.43663 4.8125 11.8848 4.8125 14.4375V29.5625C4.8125 32.1152 5.82656 34.5634 7.6316 36.3684C9.43663 38.1734 11.8848 39.1875 14.4375 39.1875H29.5625C32.1152 39.1875 34.5634 38.1734 36.3684 36.3684C38.1734 34.5634 39.1875 32.1152 39.1875 29.5625V14.4375C39.1875 11.8848 38.1734 9.43663 36.3684 7.6316C34.5634 5.82656 32.1152 4.8125 29.5625 4.8125ZM22 30.25C20.3683 30.25 18.7733 29.7661 17.4165 28.8596C16.0598 27.9531 15.0024 26.6646 14.378 25.1571C13.7536 23.6496 13.5902 21.9908 13.9085 20.3905C14.2269 18.7902 15.0126 17.3202 16.1664 16.1664C17.3202 15.0126 18.7902 14.2269 20.3905 13.9085C21.9908 13.5902 23.6496 13.7536 25.1571 14.378C26.6646 15.0024 27.9531 16.0598 28.8596 17.4165C29.7661 18.7733 30.25 20.3683 30.25 22C30.25 24.188 29.3808 26.2865 27.8336 27.8336C26.2865 29.3808 24.188 30.25 22 30.25ZM30.9375 15.125C30.5296 15.125 30.1308 15.004 29.7916 14.7774C29.4525 14.5508 29.1881 14.2287 29.032 13.8518C28.8759 13.4749 28.835 13.0602 28.9146 12.6601C28.9942 12.26 29.1906 11.8925 29.4791 11.6041C29.7675 11.3156 30.135 11.1192 30.5351 11.0396C30.9352 10.96 31.3499 11.0009 31.7268 11.157C32.1037 11.3131 32.4258 11.5775 32.6524 11.9166C32.879 12.2558 33 12.6546 33 13.0625C33 13.6095 32.7827 14.1341 32.3959 14.5209C32.0091 14.9077 31.4845 15.125 30.9375 15.125Z" fill="url(#paint1_linear_578_13491)"/>
<defs>
<linearGradient id="paint0_linear_578_13491" x1="22" y1="16.5" x2="22" y2="27.5" gradientUnits="userSpaceOnUse">
<stop stop-color="#00A3FF"/>
<stop offset="1" stop-color="#4A3AFF"/>
</linearGradient>
<linearGradient id="paint1_linear_578_13491" x1="22" y1="4.8125" x2="22" y2="39.1875" gradientUnits="userSpaceOnUse">
<stop stop-color="#00A3FF"/>
<stop offset="1" stop-color="#4A3AFF"/>
</linearGradient>
</defs>
</svg>
