<svg width="36" height="36" viewBox="0 0 44 44" fill="none" xmlns="http://www.w3.org/2000/svg">
<path d="M42.2296 13.3548L37.039 18.5283C36.0078 30.5424 25.8671 39.8752 13.75 39.8752C11.2578 39.8752 9.19528 39.4799 7.63122 38.7064C6.37653 38.0705 5.86091 37.4002 5.72341 37.1939C5.60964 37.0211 5.53634 36.8249 5.50895 36.6198C5.48156 36.4148 5.5008 36.2062 5.56523 36.0096C5.62966 35.813 5.73762 35.6335 5.88106 35.4844C6.02451 35.3353 6.19975 35.2205 6.39372 35.1486C6.42809 35.1314 10.4843 33.5845 13.114 30.6111C11.4832 29.4499 10.0498 28.0339 8.86872 26.4174C6.51403 23.2205 4.02184 17.6689 5.51716 9.38454C5.56416 9.13825 5.67681 8.90923 5.8432 8.72166C6.00959 8.5341 6.22354 8.39495 6.46247 8.31891C6.70215 8.24043 6.95881 8.22938 7.20435 8.28698C7.4499 8.34457 7.67487 8.4686 7.85466 8.64547C7.90622 8.71422 13.6297 14.3517 20.625 16.1736V15.1252C20.6317 14.035 20.8531 12.9568 21.2766 11.9522C21.7 10.9476 22.3172 10.0362 23.0928 9.27013C23.8685 8.50404 24.7875 7.89823 25.7973 7.4873C26.8071 7.07638 27.8879 6.86837 28.9781 6.87516C30.4089 6.89557 31.8101 7.28626 33.045 8.00916C34.28 8.73206 35.3066 9.76253 36.025 11.0002H41.25C41.5214 10.9993 41.7871 11.0788 42.0134 11.2287C42.2397 11.3786 42.4166 11.5921 42.5218 11.8423C42.6209 12.0963 42.646 12.3732 42.5943 12.6408C42.5426 12.9085 42.4162 13.156 42.2296 13.3548Z" fill="url(#paint0_linear_578_13485)"/>
<defs>
<linearGradient id="paint0_linear_578_13485" x1="23.8425" y1="6.875" x2="23.8425" y2="39.8752" gradientUnits="userSpaceOnUse">
<stop stop-color="#00A3FF"/>
<stop offset="1" stop-color="#4A3AFF"/>
</linearGradient>
</defs>
</svg>
