<svg width="32" height="32" viewBox="0 0 64 64" fill="none" xmlns="http://www.w3.org/2000/svg">
<path d="M32 26V34" stroke="#FFD100" stroke-width="3" stroke-linecap="round" stroke-linejoin="round"/>
<path d="M28.5515 9.99966L6.55154 47.9997C6.20106 48.6067 6.01625 49.2952 6.01563 49.9961C6.01501 50.6971 6.19859 51.3859 6.548 51.9936C6.89741 52.6012 7.40036 53.1064 8.00648 53.4585C8.61259 53.8106 9.30059 53.9972 10.0015 53.9997H54.0015C54.7025 53.9972 55.3905 53.8106 55.9966 53.4585C56.6027 53.1064 57.1057 52.6012 57.4551 51.9936C57.8045 51.3859 57.9881 50.6971 57.9874 49.9961C57.9868 49.2952 57.802 48.6067 57.4515 47.9997L35.4515 9.99966C35.1037 9.39183 34.6014 8.88668 33.9956 8.53537C33.3898 8.18405 32.7019 7.99902 32.0015 7.99902C31.3012 7.99902 30.6133 8.18405 30.0075 8.53537C29.4017 8.88668 28.8994 9.39183 28.5515 9.99966V9.99966Z" stroke="#FFD100" stroke-width="3" stroke-linecap="round" stroke-linejoin="round"/>
<path d="M31 46C32.6569 46 34 44.6569 34 43C34 41.3431 32.6569 40 31 40C29.3431 40 28 41.3431 28 43C28 44.6569 29.3431 46 31 46Z" fill="#FFD100"/>
</svg>
