<svg width="28" height="28" viewBox="0 0 28 28" fill="none" xmlns="http://www.w3.org/2000/svg">
<path d="M14.0001 9.6254C14.0001 7.21915 16.0235 5.21759 18.4298 5.2504C19.2725 5.26013 20.0944 5.51303 20.7968 5.9787C21.4992 6.44437 22.0521 7.103 22.3892 7.8754H26.2501L22.7173 11.4082C22.4893 14.957 20.9184 18.2857 18.3239 20.7176C15.7294 23.1496 12.3062 24.5022 8.7501 24.5004C5.2501 24.5004 4.3751 23.1879 4.3751 23.1879C4.3751 23.1879 7.8751 21.8754 9.6251 19.2504C9.6251 19.2504 2.6251 15.7504 4.3751 6.1254C4.3751 6.1254 8.7501 10.5004 14.0001 11.3754V9.6254Z" stroke="current" stroke-width="2" stroke-linecap="round" stroke-linejoin="round"/>
</svg>
