<svg width="current" height="current" viewBox="0 0 25 12" fill="none" xmlns="http://www.w3.org/2000/svg">
<path d="M14.672 0.575999L11.632 12H10.176L7.952 4.512C7.888 4.288 7.824 4.05867 7.76 3.824C7.696 3.58933 7.63733 3.36533 7.584 3.152C7.53067 2.93867 7.48267 2.75733 7.44 2.608C7.408 2.448 7.38667 2.33067 7.376 2.256C7.36533 2.33067 7.344 2.448 7.312 2.608C7.29067 2.75733 7.25333 2.93867 7.2 3.152C7.14667 3.36533 7.088 3.59467 7.024 3.84C6.97067 4.07467 6.90667 4.31467 6.832 4.56L4.672 12H3.216L0.192 0.575999H1.696L3.472 7.552C3.536 7.79733 3.59467 8.04267 3.648 8.288C3.70133 8.52267 3.74933 8.75733 3.792 8.992C3.84533 9.216 3.888 9.43467 3.92 9.648C3.952 9.86133 3.984 10.0693 4.016 10.272C4.048 10.0587 4.08 9.84 4.112 9.616C4.15467 9.392 4.20267 9.16267 4.256 8.928C4.30933 8.68267 4.368 8.43733 4.432 8.192C4.496 7.94667 4.56 7.70667 4.624 7.472L6.64 0.575999H8.128L10.224 7.52C10.2987 7.76533 10.368 8.016 10.432 8.272C10.496 8.51733 10.5547 8.75733 10.608 8.992C10.6613 9.22667 10.704 9.456 10.736 9.68C10.7787 9.89333 10.816 10.0907 10.848 10.272C10.88 10.0053 10.9227 9.728 10.976 9.44C11.0293 9.14133 11.0933 8.832 11.168 8.512C11.2427 8.192 11.3227 7.86667 11.408 7.536L13.168 0.575999H14.672ZM18.027 12V0.575999H19.467V10.72H24.459V12H18.027Z" fill="#0D99FF"/>
</svg>
