<svg width="current" height="current" viewBox="0 0 27 28" fill="none" xmlns="http://www.w3.org/2000/svg">
<path d="M16.9246 5.00879C18.33 5.38599 19.6114 6.12624 20.6404 7.15525C21.6693 8.18425 22.4095 9.46581 22.7867 10.8713" stroke="#0D99FF" stroke-linecap="round" stroke-linejoin="round"/>
<path d="M9.99561 13.7921C10.8482 15.553 12.272 16.9732 14.0349 17.8213C14.1649 17.8829 14.3088 17.9095 14.4522 17.8986C14.5957 17.8877 14.7339 17.8397 14.8531 17.7592L17.4424 16.0294C17.5568 15.9518 17.689 15.9045 17.8266 15.8918C17.9643 15.8791 18.1029 15.9015 18.2295 15.9569L23.0767 18.0388C23.2423 18.1078 23.3807 18.2293 23.4706 18.3846C23.5604 18.54 23.5967 18.7205 23.5738 18.8985C23.4202 20.0977 22.8349 21.1998 21.9275 21.9986C21.0201 22.7974 19.8527 23.2382 18.6438 23.2384C14.9081 23.2384 11.3253 21.7543 8.68372 19.1126C6.04213 16.4708 4.55811 12.8878 4.55811 9.15183C4.55838 7.94286 4.99913 6.77542 5.79788 5.86794C6.59664 4.96047 7.69866 4.37515 8.89775 4.22151C9.07572 4.19865 9.25628 4.23493 9.41161 4.32477C9.56695 4.4146 9.68844 4.55302 9.75739 4.71869L11.8392 9.5765C11.8933 9.70115 11.916 9.83721 11.9051 9.97268C11.8943 10.1081 11.8503 10.2389 11.777 10.3533L10.0474 12.9842C9.97039 13.1032 9.92519 13.24 9.91613 13.3814C9.90706 13.5229 9.93442 13.6643 9.99561 13.7921V13.7921Z" stroke="#0D99FF" stroke-linecap="round" stroke-linejoin="round"/>
<path d="M15.8684 8.94434C16.5688 9.16514 17.2056 9.55157 17.7248 10.0709C18.2441 10.5901 18.6305 11.227 18.8513 11.9274" stroke="#0D99FF" stroke-linecap="round" stroke-linejoin="round"/>
</svg>
