<svg width="current" height="current" viewBox="0 0 27 28" fill="none" xmlns="http://www.w3.org/2000/svg">
<path d="M8.70096 5.00879H5.38668C4.92907 5.00879 4.55811 5.37978 4.55811 5.83741V22.4099C4.55811 22.8675 4.92907 23.2385 5.38668 23.2385H8.70096C9.15857 23.2385 9.52953 22.8675 9.52953 22.4099V5.83741C9.52953 5.37978 9.15857 5.00879 8.70096 5.00879Z" stroke="#0D99FF" stroke-linecap="round" stroke-linejoin="round"/>
<path d="M4.55811 9.15137H9.52953" stroke="#0D99FF" stroke-linecap="round" stroke-linejoin="round"/>
<path d="M13.6724 5.00879H10.3581C9.90051 5.00879 9.52954 5.37978 9.52954 5.83741V22.4099C9.52954 22.8675 9.90051 23.2385 10.3581 23.2385H13.6724C14.13 23.2385 14.501 22.8675 14.501 22.4099V5.83741C14.501 5.37978 14.13 5.00879 13.6724 5.00879Z" stroke="#0D99FF" stroke-linecap="round" stroke-linejoin="round"/>
<path d="M9.52954 19.0947H14.501" stroke="#0D99FF" stroke-linecap="round" stroke-linejoin="round"/>
<path d="M18.5034 4.74311L15.302 5.60097C14.86 5.71941 14.5977 6.17378 14.7162 6.61582L19.0052 22.6236C19.1236 23.0657 19.5779 23.328 20.0199 23.2095L23.2213 22.3517C23.6633 22.2332 23.9256 21.7789 23.8072 21.3368L19.5182 5.32904C19.3998 4.88699 18.9454 4.62467 18.5034 4.74311Z" stroke="#0D99FF" stroke-linecap="round" stroke-linejoin="round"/>
<path d="M18.147 19.4266L22.9527 18.1318" stroke="#0D99FF" stroke-linecap="round" stroke-linejoin="round"/>
<path d="M15.5779 9.81464L20.3836 8.53027" stroke="#0D99FF" stroke-linecap="round" stroke-linejoin="round"/>
</svg>
