<svg width="43" height="43" viewBox="0 0 43 43" fill="none" xmlns="http://www.w3.org/2000/svg">
<circle cx="21.5" cy="21.5" r="21.5" fill="white"/>
<g clip-path="url(#clip0_1953_12702)">
<path d="M21 39C30.3888 39 38 31.3888 38 22C38 12.6112 30.3888 5 21 5C11.6112 5 4 12.6112 4 22C4 31.3888 11.6112 39 21 39Z" fill="#13B5EC"/>
<path fill-rule="evenodd" clip-rule="evenodd" d="M22.275 18.7062L26.1 16.475V20.9375L22.275 18.7062ZM26.1 28.2687L21 31.2438L15.9 28.2687V23.0625L21 26.0375L26.1 23.0625V28.2687ZM15.9 16.475L19.725 18.7062L15.9 20.9375V16.475ZM21.6375 19.7687L25.4625 22L21.6375 24.2313V19.7687ZM20.3625 24.2313L16.5375 22L20.3625 19.7687V24.2313ZM25.4625 15.4125L21 17.9625L16.5375 15.4125L21 12.7563L25.4625 15.4125ZM14.625 14.9875V28.9062L21 32.5187L27.375 28.9062V14.9875L21 11.375L14.625 14.9875Z" fill="white"/>
</g>
<defs>
<clipPath id="clip0_1953_12702">
<rect width="34" height="34" fill="white" transform="translate(4 5)"/>
</clipPath>
</defs>
</svg>
