<svg width="43" height="43" viewBox="0 0 43 43" fill="none" xmlns="http://www.w3.org/2000/svg">
<circle cx="21.5" cy="21.5" r="21.5" fill="white"/>
<path d="M27.6867 16.1712C27.2115 15.8927 26.6005 15.8927 26.0574 16.1712L22.2559 18.4688L19.6762 19.9309L15.9426 22.2285C15.4674 22.507 14.8564 22.507 14.3133 22.2285L11.3943 20.4183C10.9191 20.1398 10.5796 19.5828 10.5796 18.9562V15.475C10.5796 14.918 10.8512 14.361 11.3943 14.0129L14.3133 12.2723C14.7885 11.9938 15.3995 11.9938 15.9426 12.2723L18.8616 14.0825C19.3368 14.361 19.6762 14.918 19.6762 15.5446V17.8422L22.2559 16.3105V13.9433C22.2559 13.3863 21.9843 12.8293 21.4413 12.4812L16.0104 9.20887C15.5352 8.93038 14.9243 8.93038 14.3812 9.20887L8.81462 12.5508C8.27154 12.8293 8 13.3863 8 13.9433V20.4879C8 21.0449 8.27154 21.6019 8.81462 21.95L14.3133 25.2223C14.7885 25.5008 15.3995 25.5008 15.9426 25.2223L19.6762 22.9943L22.2559 21.4626L25.9896 19.2347C26.4648 18.9562 27.0757 18.9562 27.6188 19.2347L30.5379 20.9753C31.0131 21.2538 31.3525 21.8107 31.3525 22.4374V25.9185C31.3525 26.4755 31.0809 27.0325 30.5379 27.3806L27.6867 29.1212C27.2115 29.3997 26.6005 29.3997 26.0574 29.1212L23.1384 27.3806C22.6632 27.1021 22.3238 26.5451 22.3238 25.9185V23.6906L19.7441 25.2223V27.5199C19.7441 28.0769 20.0157 28.6339 20.5587 28.982L26.0574 32.2543C26.5326 32.5328 27.1436 32.5328 27.6867 32.2543L33.1854 28.982C33.6606 28.7035 34 28.1465 34 27.5199V20.9056C34 20.3486 33.7285 19.7917 33.1854 19.4435L27.6867 16.1712Z" fill="#8247E5"/>
</svg>
